<?xml version="1.0" encoding="utf-8"?>
<!-- Generator: Adobe Illustrator 22.1.0, SVG Export Plug-In . SVG Version: 6.00 Build 0)  -->
<svg version="1.1" xmlns="http://www.w3.org/2000/svg" xmlns:xlink="http://www.w3.org/1999/xlink" x="0px" y="0px"
	 viewBox="0 0 500 500" enable-background="new 0 0 500 500" xml:space="preserve">
<g id="Background_Simple">
	<g>
		<path fill="#C6FF00" d="M27.5,208.1c0,0-14.4,82.2,42.5,149.8S220.6,447.8,296,467.8c75.5,20,143.2-11.9,165.7-75.6
			c22.5-63.7-32-94.3-48.2-174.9c-16.2-80.7-8.3-104.6-65.9-163.4S179.2,2.8,107.8,70.6C36.4,138.4,27.5,208.1,27.5,208.1z"/>
		<path opacity="0.7" fill="#FFFFFF" d="M27.5,208.1c0,0-14.4,82.2,42.5,149.8S220.6,447.8,296,467.8c75.5,20,143.2-11.9,165.7-75.6
			c22.5-63.7-32-94.3-48.2-174.9c-16.2-80.7-8.3-104.6-65.9-163.4S179.2,2.8,107.8,70.6C36.4,138.4,27.5,208.1,27.5,208.1z"/>
	</g>
</g>
<g id="Plants">
	<g>
		<g>
			<g>
				<g>
					<path fill="#C6FF00" d="M408.9,258.5c0,0,0-4.2-5.9-10c-5.9-5.9-9.6-9.2-9.6-9.2s-2.9,9.6,2.5,15.5c5.4,5.9,13,11.3,13,11.3
						V258.5z"/>
					<path fill="#C6FF00" d="M400.4,284.7c0,0,0-4.2-5.9-10c-5.9-5.9-9.6-9.2-9.6-9.2s-2.9,9.6,2.5,15.5c5.4,5.9,13,11.3,13,11.3
						V284.7z"/>
					<path fill="#C6FF00" d="M408.5,265.7c0,0,0.4-4.2,6.9-9.4c6.4-5.2,10.5-8.1,10.5-8.1s1.9,9.9-4.1,15.1
						c-6,5.2-14.1,9.9-14.1,9.9L408.5,265.7z"/>
					<path fill="#C6FF00" d="M398.3,296.5c0,0,0.9-4.1,7.8-8.6c7-4.5,11.3-7,11.3-7s0.8,10-5.7,14.6c-6.5,4.6-15,8.3-15,8.3
						L398.3,296.5z"/>
					<path fill="#C6FF00" d="M400.2,330.1c0,0,0-4.2,5.9-10c5.9-5.9,9.6-9.2,9.6-9.2s2.9,9.6-2.5,15.5c-5.4,5.9-13,11.3-13,11.3
						V330.1z"/>
					<path fill="#C6FF00" d="M400.1,338.3c0,0,0.6-4.1-4.4-10.8c-5-6.6-8.2-10.5-8.2-10.5s-4.3,9.1,0.3,15.7
						c4.5,6.6,11.2,13,11.2,13L400.1,338.3z"/>
					<path fill="#C6FF00" d="M394.3,362.7c0,0,0-4.2,5.9-10c5.9-5.9,9.6-9.2,9.6-9.2s2.9,9.6-2.5,15.5c-5.4,5.9-13,11.3-13,11.3
						V362.7z"/>
					<path fill="#C6FF00" d="M398.2,384.7c0,0-1.1-4,3.1-11.2c4.2-7.1,7-11.3,7-11.3s5.3,8.6,1.5,15.6c-3.8,7-9.7,14.2-9.7,14.2
						L398.2,384.7z"/>
				</g>
				
					<path fill="none" stroke="#263238" stroke-width="0.5" stroke-linecap="round" stroke-linejoin="round" stroke-miterlimit="10" d="
					M409.4,257.5c-0.3,4.5-0.9,9.1-1.6,13c-2.3,12-8.1,19.7-10.4,30.5c-2.3,10.8,4.3,24.7,2.6,38.6c-1.8,13.9-7.2,21.6-5.6,30.8
					c1.5,9.3,9.6,34.3,9.6,34.3"/>
				
					<line fill="none" stroke="#263238" stroke-width="0.5" stroke-linecap="round" stroke-linejoin="round" stroke-miterlimit="10" x1="408.5" y1="268.4" x2="414.8" y2="263.6"/>
				
					<line fill="none" stroke="#263238" stroke-width="0.5" stroke-linecap="round" stroke-linejoin="round" stroke-miterlimit="10" x1="408.8" y1="262.9" x2="406.1" y2="258.2"/>
				
					<path fill="none" stroke="#263238" stroke-width="0.5" stroke-linecap="round" stroke-linejoin="round" stroke-miterlimit="10" d="
					M397.8,300.4c0,0,5.3-4,10.7-7.9"/>
				
					<path fill="none" stroke="#263238" stroke-width="0.5" stroke-linecap="round" stroke-linejoin="round" stroke-miterlimit="10" d="
					M400.4,292.2c0,0-4.4-8.6-9.4-14.4"/>
				
					<path fill="none" stroke="#263238" stroke-width="0.5" stroke-linecap="round" stroke-linejoin="round" stroke-miterlimit="10" d="
					M400.4,336.1c0,0,4.1-8.1,11.3-15.1"/>
				
					<path fill="none" stroke="#263238" stroke-width="0.5" stroke-linecap="round" stroke-linejoin="round" stroke-miterlimit="10" d="
					M399.4,341.9c0,0-2.6-6.3-5.7-10.9c-3.1-4.5-3.5-5.1-3.5-5.1"/>
				
					<path fill="none" stroke="#263238" stroke-width="0.5" stroke-linecap="round" stroke-linejoin="round" stroke-miterlimit="10" d="
					M394.3,370.3c0,0,2.1-5.4,4.8-9.6c2.6-4.3,6.2-8.1,6.2-8.1"/>
				
					<path fill="none" stroke="#263238" stroke-width="0.5" stroke-linecap="round" stroke-linejoin="round" stroke-miterlimit="10" d="
					M400.1,392c0,0-0.6-5,1.6-9.3c2.2-4.3,4.7-9.8,5.7-12"/>
			</g>
			<g>
				<g>
					<path fill="#C6FF00" d="M370.6,314.4c0,0-0.5-2.6,2.6-6.9c3-4.3,5-6.8,5-6.8s2.9,5.7,0.1,10c-2.8,4.3-6.9,8.5-6.9,8.5
						L370.6,314.4z"/>
					<path fill="#C6FF00" d="M378.7,329.9c0,0-0.5-2.6,2.6-6.9c3-4.3,5-6.8,5-6.8s2.9,5.7,0.1,10c-2.8,4.3-6.9,8.5-6.9,8.5
						L378.7,329.9z"/>
					<path fill="#C6FF00" d="M371.6,318.8c0,0-0.7-2.6-5.3-5.1c-4.6-2.6-7.5-4-7.5-4s-0.1,6.4,4.2,9c4.3,2.6,9.9,4.7,9.9,4.7
						L371.6,318.8z"/>
					<path fill="#C6FF00" d="M381.3,337.1c0,0-1-2.5-5.8-4.5c-4.8-2.1-7.9-3.1-7.9-3.1s0.6,6.4,5.2,8.5c4.6,2.2,10.3,3.6,10.3,3.6
						L381.3,337.1z"/>
					<path fill="#C6FF00" d="M383.8,358.4c0,0-0.5-2.6-4.8-5.7c-4.3-3-7-4.7-7-4.7s-0.8,6.3,3.3,9.4c4,3.1,9.4,5.7,9.4,5.7
						L383.8,358.4z"/>
					<path fill="#C6FF00" d="M384.7,363.5c0,0-0.8-2.5,1.6-7.2c2.4-4.7,4-7.5,4-7.5s3.7,5.2,1.5,9.9c-2.1,4.6-5.6,9.4-5.6,9.4
						L384.7,363.5z"/>
					<path fill="#C6FF00" d="M392.1,384.6c0,0,0.3-2.6,4.4-5.9c4.1-3.3,6.7-5.1,6.7-5.1s1.2,6.3-2.7,9.6c-3.9,3.3-9,6.2-9,6.2
						L392.1,384.6z"/>
					<path fill="#C6FF00" d="M391,378.1c0,0-0.5-2.6-4.8-5.7c-4.3-3-7-4.7-7-4.7s-0.8,6.3,3.3,9.4c4,3.1,9.4,5.7,9.4,5.7L391,378.1z
						"/>
					<path fill="#C6FF00" d="M390.9,392.4c0,0,0.2-2.7-3.2-6.7c-3.4-4-5.6-6.4-5.6-6.4s-2.4,5.9,0.8,9.9c3.1,4,7.6,7.9,7.6,7.9
						L390.9,392.4z"/>
				</g>
				
					<path fill="none" stroke="#263238" stroke-width="0.5" stroke-linecap="round" stroke-linejoin="round" stroke-miterlimit="10" d="
					M370.1,313.8c0.7,2.8,1.5,5.6,2.4,8c2.7,7.2,7.2,11.5,9.8,18c2.6,6.5,0,16,2.6,24.5c2.6,8.5,6.8,12.8,6.9,18.7
					c0,6-2.3,22.6-2.3,22.6"/>
				
					<line fill="none" stroke="#263238" stroke-width="0.5" stroke-linecap="round" stroke-linejoin="round" stroke-miterlimit="10" x1="371.9" y1="320.6" x2="367.4" y2="318.2"/>
				
					<line fill="none" stroke="#263238" stroke-width="0.5" stroke-linecap="round" stroke-linejoin="round" stroke-miterlimit="10" x1="371.1" y1="317.1" x2="372.3" y2="313.9"/>
				
					<path fill="none" stroke="#263238" stroke-width="0.5" stroke-linecap="round" stroke-linejoin="round" stroke-miterlimit="10" d="
					M382.1,339.5c0,0-3.7-1.9-7.6-3.8"/>
				
					<path fill="none" stroke="#263238" stroke-width="0.5" stroke-linecap="round" stroke-linejoin="round" stroke-miterlimit="10" d="
					M379.5,334.6c0,0,1.8-5.9,4.3-10"/>
				
					<path fill="none" stroke="#263238" stroke-width="0.5" stroke-linecap="round" stroke-linejoin="round" stroke-miterlimit="10" d="
					M384.3,362.1c0,0-3.5-4.6-8.7-8.3"/>
				
					<path fill="none" stroke="#263238" stroke-width="0.5" stroke-linecap="round" stroke-linejoin="round" stroke-miterlimit="10" d="
					M385.6,365.7c0,0,1-4.2,2.4-7.4c1.4-3.2,1.7-3.6,1.7-3.6"/>
				
					<path fill="none" stroke="#263238" stroke-width="0.5" stroke-linecap="round" stroke-linejoin="round" stroke-miterlimit="10" d="
					M391.6,387.5c0,0,3-3.6,4.8-5c1.8-1.4,3.1-2.7,3.1-2.7"/>
				
					<path fill="none" stroke="#263238" stroke-width="0.5" stroke-linecap="round" stroke-linejoin="round" stroke-miterlimit="10" d="
					M391.8,382.9c0,0-1.9-3.1-4-5.5c-2.1-2.4-4.7-4.4-4.7-4.4"/>
				
					<path fill="none" stroke="#263238" stroke-width="0.5" stroke-linecap="round" stroke-linejoin="round" stroke-miterlimit="10" d="
					M390.5,397.1c0,0-0.2-3.2-2-5.6c-1.8-2.4-4-5.7-4.9-6.9"/>
			</g>
		</g>
		<g>
			<path fill="#263238" d="M412.8,434.4h-32.2c-1.7,0-3-1.4-3-3v-28.7h38.3v28.7C415.9,433,414.5,434.4,412.8,434.4z"/>
			<path fill="#263238" d="M415.5,407.6h-38c-1.7,0-3-1.3-3-3l0,0c0-1.7,1.3-3,3-3h38c1.7,0,3,1.3,3,3l0,0
				C418.5,406.3,417.2,407.6,415.5,407.6z"/>
		</g>
	</g>
</g>
<g id="Clock">
	<g>
		<circle fill="#263238" cx="342.7" cy="106.7" r="34"/>
		
			<ellipse transform="matrix(0.9267 -0.3759 0.3759 0.9267 -14.9652 136.6283)" fill="#FFFFFF" cx="342.7" cy="106.7" rx="29.5" ry="29.5"/>
		<polyline fill="none" stroke="#263238" stroke-width="2" stroke-miterlimit="10" points="323.5,112.1 342.7,106.7 342.7,79.9 		
			"/>
	</g>
</g>
<g id="Graphics">
	<g>
		<polygon fill="#263238" points="177.7,258.7 140.4,258.7 91.5,127.5 128.8,127.5 		"/>
		<polygon opacity="0.2" fill="#FFFFFF" points="177.7,258.7 140.4,258.7 91.5,127.5 128.8,127.5 		"/>
		<path fill="#263238" d="M118.9,159.5h-9.6c-1.2,0-2.5-1-3-2.2l-3.7-9.9c-0.4-1.2,0.2-2.2,1.4-2.2h9.6c1.2,0,2.5,1,3,2.2l3.7,9.9
			C120.7,158.6,120.1,159.5,118.9,159.5z"/>
		<polygon fill="#263238" points="131.3,134.1 94,134.1 91.5,127.5 128.8,127.5 		"/>
		<g>
			
				<line fill="none" stroke="#263238" stroke-linecap="round" stroke-linejoin="round" stroke-miterlimit="10" x1="106.7" y1="135.2" x2="107.8" y2="138.1"/>
			
				<line fill="none" stroke="#263238" stroke-linecap="round" stroke-linejoin="round" stroke-miterlimit="10" x1="108.2" y1="135.2" x2="109.2" y2="138.1"/>
			
				<line fill="none" stroke="#263238" stroke-linecap="round" stroke-linejoin="round" stroke-miterlimit="10" x1="109.6" y1="135.2" x2="110.7" y2="138.1"/>
			
				<line fill="none" stroke="#263238" stroke-linecap="round" stroke-linejoin="round" stroke-miterlimit="10" x1="111" y1="135.2" x2="112.1" y2="138.1"/>
			
				<line fill="none" stroke="#263238" stroke-linecap="round" stroke-linejoin="round" stroke-miterlimit="10" x1="112.5" y1="135.2" x2="113.6" y2="138.1"/>
			
				<line fill="none" stroke="#263238" stroke-linecap="round" stroke-linejoin="round" stroke-miterlimit="10" x1="113.9" y1="135.2" x2="115" y2="138.1"/>
			
				<line fill="none" stroke="#263238" stroke-linecap="round" stroke-linejoin="round" stroke-miterlimit="10" x1="115.4" y1="135.2" x2="116.4" y2="138.1"/>
			
				<line fill="none" stroke="#263238" stroke-linecap="round" stroke-linejoin="round" stroke-miterlimit="10" x1="116.8" y1="135.2" x2="117.9" y2="138.1"/>
			
				<line fill="none" stroke="#263238" stroke-linecap="round" stroke-linejoin="round" stroke-miterlimit="10" x1="118.2" y1="135.2" x2="119.3" y2="138.1"/>
			
				<line fill="none" stroke="#263238" stroke-linecap="round" stroke-linejoin="round" stroke-miterlimit="10" x1="119.7" y1="135.2" x2="120.7" y2="138.1"/>
		</g>
		<g>
			<path fill="#FFFFFF" d="M115.8,153.3l-9-5.7c-0.2-0.1-0.4-0.2-0.6-0.1c-0.2,0.1-0.2,0.3-0.1,0.5l4.1,8.9c0.1,0.2,0.3,0.4,0.6,0.5
				c0,0,0.1,0,0.1,0c0.2,0,0.3-0.1,0.3-0.2l1-2.9l3.6,0c0.2,0,0.4-0.1,0.4-0.3C116.1,153.7,116,153.4,115.8,153.3z"/>
			<g>
				<polygon fill="#263238" points="115.6,153.7 106.5,148 110.7,156.9 111.7,153.8 				"/>
			</g>
		</g>
		<polygon fill="#FFFFFF" points="132.5,153.7 123.4,148 127.6,156.9 128.6,153.8 		"/>
		<polygon fill="#FFFFFF" points="137.1,158.8 136.3,157 135.2,158.5 		"/>
		<polygon fill="#FFFFFF" points="158.9,217.4 158.1,215.6 157.1,217.1 		"/>
		<polygon fill="#FFFFFF" points="165.6,235.4 164.8,233.6 163.8,235.1 		"/>
		<polygon fill="#FFFFFF" points="172.5,253.8 171.7,252 170.6,253.6 		"/>
		<polygon fill="#FFFFFF" points="134,196.6 133.2,194.8 132.1,196.3 		"/>
		<polygon fill="#FFFFFF" points="141.8,217.4 140.9,215.6 139.9,217.1 		"/>
		<polygon fill="#FFFFFF" points="148.5,235.4 147.6,233.6 146.6,235.1 		"/>
		<polygon fill="#FFFFFF" points="155.3,253.8 154.5,252 153.5,253.6 		"/>
		<g>
			<polygon fill="#FFFFFF" points="115.7,178.5 117.3,179.5 121.6,170.5 120.1,169.5 			"/>
			<path fill="#FFFFFF" d="M117.7,169.7c-2.3-1.8-2.4-2.1-1.9-4.2c-1.2,1.6-1.5,1.6-4,0.3c2.3,1.8,2.4,2.1,1.9,4.2
				C114.8,168.4,115.2,168.4,117.7,169.7z"/>
			<path fill="#FFFFFF" d="M125.2,170.7c-1.4-1.1-1.5-1.3-1.2-2.6c-0.7,1-0.9,1-2.5,0.2c1.4,1.1,1.5,1.3,1.2,2.6
				C123.5,169.9,123.7,169.9,125.2,170.7z"/>
			<path fill="#FFFFFF" d="M124.8,174.9c-1-0.8-1.1-0.9-0.8-1.8c-0.5,0.7-0.7,0.7-1.8,0.1c1,0.8,1.1,0.9,0.8,1.8
				C123.5,174.3,123.7,174.3,124.8,174.9z"/>
		</g>
		<polygon fill="#FFFFFF" points="147.5,214.9 148.4,215.6 152.7,206.6 151.8,205.9 		"/>
		<g>
			<g>
				<polygon fill="#FFFFFF" points="143.8,176.2 135.9,171.1 139.5,179 140.4,176.2 				"/>
			</g>
			<g>
				<path fill="#FFFFFF" d="M137.8,176.7c-2.9,0-5.9-1.7-6.7-3.8c-0.8-2.1,0.9-3.8,3.9-3.8c2.9,0,5.9,1.7,6.7,3.8
					C142.5,174.9,140.8,176.7,137.8,176.7z M135.2,169.4c-2.7,0-4.3,1.5-3.6,3.4c0.7,1.9,3.4,3.4,6.1,3.4s4.3-1.5,3.6-3.4
					C140.6,171,137.8,169.4,135.2,169.4z"/>
			</g>
			<g>
				<path fill="#FFFFFF" d="M134.3,175.9c-0.7,0-1.5-0.6-1.8-1.3c-0.3-0.7,0.1-1.3,0.8-1.3c0.7,0,1.5,0.6,1.8,1.3
					C135.4,175.3,135.1,175.9,134.3,175.9z M133.5,173.7c-0.5,0-0.7,0.4-0.5,0.8c0.2,0.5,0.7,0.8,1.2,0.8c0.5,0,0.7-0.4,0.5-0.8
					C134.5,174.1,134,173.7,133.5,173.7z"/>
			</g>
			<g>
				<path fill="#FFFFFF" d="M134.5,177.3l-0.3-0.4c0.6-0.2,0.9-0.6,0.9-1c0.1-0.6-0.3-1.1-0.3-1.1l0.4-0.2c0,0,0.5,0.7,0.5,1.5
					C135.5,176.6,135.1,177,134.5,177.3z"/>
			</g>
		</g>
		<g>
			<polygon fill="#FFFFFF" points="129.5,190.3 123.9,186.2 122.7,188.1 128.3,192.2 			"/>
			<path fill="#FFFFFF" d="M120.5,195.5l0.9,0.7l2-3.2c-0.2-0.2-0.3-0.6-0.2-0.8c0.2-0.2,0.6-0.2,0.9,0c0.3,0.2,0.5,0.7,0.3,0.9
				c-0.1,0.2-0.4,0.2-0.7,0.1l-2,3.2l0.8,0.6l5-1.4l0.3-3l-5.5-4l-2.5,1.4L120.5,195.5z"/>
		</g>
		
			<line fill="none" stroke="#263238" stroke-linecap="round" stroke-linejoin="round" stroke-miterlimit="10" x1="115.3" y1="182.8" x2="147.4" y2="182.8"/>
		<g>
			<polygon fill="#FFFFFF" points="143.2,186.2 142,188.1 147.6,192.2 148.8,190.3 			"/>
			<path fill="#FFFFFF" d="M139.3,190l0.6,5.5l0.9,0.7l2-3.2c-0.2-0.2-0.3-0.6-0.2-0.8c0.2-0.2,0.6-0.2,0.9,0
				c0.3,0.2,0.5,0.7,0.3,0.9c-0.1,0.2-0.4,0.2-0.7,0.1l-2,3.2l0.8,0.6l5-1.4l0.3-3l-5.5-4L139.3,190z"/>
			<path fill="#FFFFFF" d="M137.9,191.6c0.1-0.4,0.1-0.8,0.1-1.3c0.1-0.9-0.2-1.8-0.8-2.5c-1-1.1-2.4-1.5-2.4-1.5
				c-0.2,0-0.3,0-0.3,0.2c0,0.1,0.1,0.3,0.3,0.3c0,0,1.2,0.3,2,1.2c0.5,0.6,0.7,1.3,0.6,2.1c0,0.5-0.1,0.9-0.1,1.3
				c-0.3,2-0.4,3.2,2.9,5.2c0.1,0,0.1,0.1,0.2,0.1c0.1,0,0.1,0,0.2-0.1c0-0.1,0-0.3-0.2-0.4C137.5,194.4,137.6,193.6,137.9,191.6z"
				/>
		</g>
		<path fill="#FFFFFF" d="M123.7,205l0.2,0.5c0.1,0.2,0.7,1.8,1,2.4l0.9-0.2c-0.2-0.3-0.5-1-0.7-1.6h4l3.3,8.9h-1.5l0.4,1h4l-0.4-1
			h-1.5l-3.3-8.9h3.9c0.2,0.6,0.5,1.4,0.7,1.9l1,0c-0.2-0.7-0.9-2.4-0.9-2.4l-0.2-0.5H123.7z"/>
		<g>
			<path opacity="0.44" fill="#FFFFFF" d="M144.6,229.7c0.9,2.3-1,4.2-4.2,4.2s-6.4-1.9-7.3-4.2c-0.9-2.3,1-4.2,4.2-4.2
				S143.7,227.4,144.6,229.7z"/>
			<path fill="none" stroke="#FFFFFF" stroke-miterlimit="10" d="M144.6,229.7c0.9,2.3-1,4.2-4.2,4.2s-6.4-1.9-7.3-4.2
				c-0.9-2.3,1-4.2,4.2-4.2S143.7,227.4,144.6,229.7z"/>
		</g>
		<g>
			<path fill="#FFFFFF" d="M156.4,229.8l3.8-6.8c0.2-0.3,0.6-0.3,1-0.1l0,0c0.5,0.2,0.8,0.7,0.7,1.1l-2,7.6L156.4,229.8z"/>
			<path fill="#FFFFFF" d="M155.8,230.4c1.5-0.2,4.4,1.1,4.5,3c0,0.5-0.3,0.8-0.7,1c-1.1,0.7-2.7,0.7-4.2,0.7
				c0.4-0.3,0.5-0.7,0.4-1.3c-0.1-0.5-0.5-1.1-0.7-1.6C154.8,231.5,154.9,230.5,155.8,230.4"/>
		</g>
		<g>
			<path fill="#FFFFFF" d="M147.9,245.4c-0.4-1-1-1.5-1.4-1.9l-1.1,1.8c0.4,0.4,1.1,1,1.6,2.1c0.4,1,0.8,1.7,1.1,2.1l1.1-1.8
				C148.9,247.3,148.4,246.5,147.9,245.4z"/>
			<path fill="#FFFFFF" d="M146.6,247.5c-0.4-1-1-1.5-1.4-1.9l-1.1,1.8c0.4,0.4,1.1,1,1.6,2.1c0.4,1,0.8,1.7,1.1,2.1l1.1-1.8
				C147.6,249.4,147.1,248.6,146.6,247.5z"/>
			<path fill="#FFFFFF" d="M148.3,245.4c0.4,1,0.8,1.7,1.1,2.1l1.6-2.6l-3.7-2.7l-0.7,1.1C147.2,243.7,147.8,244.3,148.3,245.4z"/>
			<path fill="#FFFFFF" d="M145.3,249.6c-0.4-1-1-1.5-1.4-1.9l-1,1.5l0.2,3.5c0,0.2,0.3,0.5,0.5,0.4l2.9-1.1
				C146.2,251.5,145.8,250.7,145.3,249.6z M144,251.9l-0.1-1.8l1.7,1.2L144,251.9z"/>
		</g>
		<path fill="#FFFFFF" d="M159.7,247.1l-1.3,2l6.5,4.7l1.3-2l0.4,0.3l3-4.7l-7.2-5.3l-3,4.7L159.7,247.1z M164.5,252.6l-4.9-3.6
			l0.9-1.4l4.9,3.6L164.5,252.6z"/>
		<g>
			<polygon fill="#FFFFFF" points="98.7,129.3 98.9,129.9 98,131 99.8,132.1 100,132.7 97.3,131 			"/>
			<polygon fill="#FFFFFF" points="96.5,129.3 96.7,129.9 95.8,131 97.5,132.1 97.7,132.7 95,131 			"/>
		</g>
	</g>
	<g>
		<polygon fill="#263238" points="250,206.2 172.8,206.2 149.2,140.3 226.4,140.3 		"/>
		<polygon fill="#C6FF00" points="244.5,202.6 175.7,202.6 154.7,143.9 223.5,143.9 		"/>
		<polygon fill="#FFFFFF" points="231.4,166.1 220.1,157.7 211.1,181 187.8,174.4 175.7,202.6 244.5,202.6 		"/>
		<path fill="#FFFFFF" d="M184,156.5c-1.6-4.5-6.5-8.1-11-8.1c-4.5,0-6.8,3.6-5.2,8.1c1.6,4.5,6.5,8.1,11,8.1
			C183.3,164.6,185.6,161,184,156.5z"/>
	</g>
	<g>
		<polygon fill="#263238" points="258,194.8 180.8,194.8 157.2,129 234.4,129 		"/>
		<polygon fill="#C6FF00" points="252.5,191.2 183.7,191.2 162.7,132.6 231.5,132.6 		"/>
		<polygon fill="#FFFFFF" points="239.4,154.7 228.1,146.4 219.1,169.7 195.8,163.1 183.7,191.2 252.5,191.2 		"/>
		<path fill="#FFFFFF" d="M192,145.2c-1.6-4.5-6.5-8.1-11-8.1c-4.5,0-6.8,3.6-5.2,8.1c1.6,4.5,6.5,8.1,11,8.1
			C191.3,153.2,193.6,149.6,192,145.2z"/>
	</g>
	<g>
		<g>
			<path d="M258.3,118.7l1.9,4.5h-0.5c-0.4-0.8-0.7-1.4-1-1.7c-0.5-0.5-1-1-1.6-1.2c-0.6-0.3-1.3-0.4-2.1-0.4h-2.7l5.4,14.7
				c0.4,1.2,0.8,1.9,1.2,2.2c0.5,0.4,1.1,0.6,1.9,0.6h0.7l0.2,0.5h-8.1l-0.2-0.5h0.7c0.8,0,1.3-0.2,1.5-0.7c0.1-0.3-0.1-1-0.4-2.1
				l-5.4-14.7h-2.3c-0.9,0-1.5,0.1-1.8,0.2c-0.4,0.2-0.7,0.5-0.9,1c-0.2,0.5-0.1,1.2,0.1,2.1h-0.5l-1.4-4.5H258.3z"/>
		</g>
		<line fill="none" stroke="#263238" stroke-width="0.5" stroke-miterlimit="10" x1="270" y1="127.7" x2="275.9" y2="127.7"/>
		<polygon fill="none" stroke="#263238" stroke-width="0.5" stroke-miterlimit="10" points="275.7,143.3 246.2,143.3 235.2,113.3 
			264.8,113.3 		"/>
		<polygon fill="#FFFFFF" stroke="#263238" stroke-width="0.5" stroke-miterlimit="10" points="241.9,128.8 239.7,128.8 
			238.9,126.6 241.1,126.6 		"/>
		<polygon fill="#FFFFFF" stroke="#263238" stroke-width="0.5" stroke-miterlimit="10" points="271.5,128.8 269.3,128.8 
			268.5,126.6 270.7,126.6 		"/>
		<polygon fill="#FFFFFF" stroke="#263238" stroke-width="0.5" stroke-miterlimit="10" points="236.8,114.6 234.5,114.6 
			233.7,112.4 235.9,112.4 		"/>
		<polygon fill="#FFFFFF" stroke="#263238" stroke-width="0.5" stroke-miterlimit="10" points="266.4,114.6 264.1,114.6 
			263.3,112.4 265.5,112.4 		"/>
		<polygon fill="#FFFFFF" stroke="#263238" stroke-width="0.5" stroke-miterlimit="10" points="251.6,114.6 249.3,114.6 
			248.5,112.4 250.8,112.4 		"/>
		<polygon fill="#FFFFFF" stroke="#263238" stroke-width="0.5" stroke-miterlimit="10" points="247.6,144.2 245.4,144.2 244.6,142 
			246.8,142 		"/>
		<polygon fill="#FFFFFF" stroke="#263238" stroke-width="0.5" stroke-miterlimit="10" points="277.2,144.2 275,144.2 274.2,142 
			276.4,142 		"/>
		<line fill="none" stroke="#263238" stroke-width="0.5" stroke-miterlimit="10" x1="261.1" y1="143.8" x2="263.3" y2="149.7"/>
		<polygon fill="#FFFFFF" stroke="#263238" stroke-width="0.5" stroke-miterlimit="10" points="262.4,144.2 260.2,144.2 259.4,142 
			261.6,142 		"/>
		<polygon fill="#263238" points="264.8,150.8 262.6,150.8 261.8,148.6 264,148.6 		"/>
		<line fill="none" stroke="#263238" stroke-width="0.5" stroke-miterlimit="10" x1="244.4" y1="137.7" x2="269.2" y2="137.7"/>
		<path fill="#263238" d="M277.1,127.7c-0.2-0.6-0.9-1.2-1.6-1.2s-1,0.5-0.7,1.2c0.2,0.6,0.9,1.2,1.6,1.2
			C277,128.9,277.3,128.4,277.1,127.7z"/>
	</g>
</g>
<g id="Table">
	<g>
		<polygon opacity="0.2" points="140,286.5 166.8,309.4 141.3,434.4 143,434.4 171.4,311.7 197.4,333.6 160.7,434.2 163,433.8 
			201.6,335.9 309.2,433.8 374.6,433.8 298.1,283.8 		"/>
		<g>
			
				<polygon id="XMLID_50_" fill="#263238" stroke="#263238" stroke-linecap="round" stroke-linejoin="round" stroke-miterlimit="10" points="
				143,434.4 141.3,434.4 138.7,284.3 145.6,284.3 			"/>
			
				<polygon id="XMLID_84_" fill="#263238" stroke="#263238" stroke-linecap="round" stroke-linejoin="round" stroke-miterlimit="10" points="
				291.9,434.4 290.2,434.4 287.6,284.3 294.5,284.3 			"/>
			
				<rect id="XMLID_62_" x="136.1" y="282" fill="#FFFFFF" stroke="#263238" stroke-linecap="round" stroke-linejoin="round" stroke-miterlimit="10" width="166.4" height="3.9"/>
		</g>
	</g>
</g>
<g id="Paper_Bin">
	<g>
		<g>
			<path fill="#FFFFFF" stroke="#263238" stroke-linecap="round" stroke-linejoin="round" stroke-miterlimit="10" d="M98.5,362.6
				l-3,6.4c0,0,3.7,4,5.4,4s2.4-1.7,4.4-2.4c2-0.7,5.4-7.1,5.4-7.1s-2-3.4-4-3.7c-2-0.3-5-1.3-6.7-1.7
				C98.2,357.9,98.5,362.6,98.5,362.6z"/>
			<path fill="none" stroke="#263238" stroke-linecap="round" stroke-linejoin="round" stroke-miterlimit="10" d="M98.5,362.6l2,3.4
				v3c0,0,2,1,2.7,0c0.7-1,3.7-4.4,3.7-4.4l-1.3-3"/>
			
				<line fill="none" stroke="#263238" stroke-linecap="round" stroke-linejoin="round" stroke-miterlimit="10" x1="100.5" y1="369" x2="96.8" y2="368.3"/>
		</g>
		<g>
			<path fill="#FFFFFF" stroke="#263238" stroke-linecap="round" stroke-linejoin="round" stroke-miterlimit="10" d="M156.4,423
				l-6.8,1.9c0,0-0.6,5.4,0.5,6.7c1.1,1.3,2.8,0.7,4.7,1.7c1.8,1.1,8.8-0.6,8.8-0.6s1.2-3.7,0.1-5.5c-1.1-1.7-2.3-4.7-3.2-6.2
				C159.7,419.7,156.4,423,156.4,423z"/>
			<path fill="none" stroke="#263238" stroke-linecap="round" stroke-linejoin="round" stroke-miterlimit="10" d="M156.4,423
				l-1.2,3.7l-2.3,2c0,0,0.6,2.2,1.8,2c1.2-0.2,5.7-0.1,5.7-0.1l1.4-3"/>
			
				<line fill="none" stroke="#263238" stroke-linecap="round" stroke-linejoin="round" stroke-miterlimit="10" x1="152.9" y1="428.8" x2="151" y2="425.5"/>
		</g>
		<g>
			<path fill="#FFFFFF" stroke="#263238" stroke-linecap="round" stroke-linejoin="round" stroke-miterlimit="10" d="M87.7,361.2
				c0,0-5.7,3.7-4.7,5.7s1.7,3.4,2.7,4c1,0.7,4,1.7,5,1c1-0.7,3.4-2.4,3.7-5c0.3-2.7,1.3-3,0.3-4.4
				C93.8,361.2,87.7,361.2,87.7,361.2z"/>
			<path fill="none" stroke="#263238" stroke-linecap="round" stroke-linejoin="round" stroke-miterlimit="10" d="M83,366.9l4,2.7
				l3.4-0.3l1.3-3.7c0,0,0-2-2-2c-2,0-3,1-3,1l0.7,2"/>
		</g>
		<g>
			<path fill="#FFFFFF" stroke="#263238" stroke-linecap="round" stroke-linejoin="round" stroke-miterlimit="10" d="M112.6,356.5
				c0,0-5,4.7-4.4,8.1c0.7,3.4,7.1,6,7.1,6l7.7-4.4l-2.4-6l-5-2.7L112.6,356.5z"/>
			<polyline fill="none" stroke="#263238" stroke-linecap="round" stroke-linejoin="round" stroke-miterlimit="10" points="
				108.2,364.6 113.6,366.6 119.7,364.6 117.3,359.2 			"/>
			<polyline fill="none" stroke="#263238" stroke-linecap="round" stroke-linejoin="round" stroke-miterlimit="10" points="
				112.6,356.5 112.3,363.6 116.3,364.9 			"/>
		</g>
		<g>
			<path fill="#FFFFFF" stroke="#263238" stroke-linecap="round" stroke-linejoin="round" stroke-miterlimit="10" d="M127.7,419.7
				c0,0-5,4.7-4.4,8.1c0.7,3.4,7.1,6,7.1,6l7.7-4.4l-2.4-6l-5-2.7L127.7,419.7z"/>
			<polyline fill="none" stroke="#263238" stroke-linecap="round" stroke-linejoin="round" stroke-miterlimit="10" points="
				123.4,427.8 128.7,429.8 134.8,427.8 132.4,422.4 			"/>
			<polyline fill="none" stroke="#263238" stroke-linecap="round" stroke-linejoin="round" stroke-miterlimit="10" points="
				127.7,419.7 127.4,426.8 131.4,428.1 			"/>
		</g>
		<g>
			<path fill="#FFFFFF" stroke="#263238" stroke-linecap="round" stroke-linejoin="round" stroke-miterlimit="10" d="M94.1,351.5
				c0,0-5,4.7-4.4,8.1c0.7,3.4,7.1,6,7.1,6l7.7-4.4l-2.4-6l-5-2.7L94.1,351.5z"/>
			<polyline fill="none" stroke="#263238" stroke-linecap="round" stroke-linejoin="round" stroke-miterlimit="10" points="
				89.8,359.5 95.1,361.6 101.2,359.5 98.8,354.2 			"/>
			<polyline fill="none" stroke="#263238" stroke-linecap="round" stroke-linejoin="round" stroke-miterlimit="10" points="
				94.1,351.5 93.8,358.5 97.8,359.9 			"/>
		</g>
		<g>
			
				<polygon id="XMLID_37_" fill="#263238" stroke="#263238" stroke-linecap="round" stroke-linejoin="round" stroke-miterlimit="10" points="
				122.3,434.4 82.4,434.4 76.5,368.3 128.3,368.3 			"/>
		</g>
		<g>
			<path fill="#FFFFFF" stroke="#263238" stroke-linecap="round" stroke-linejoin="round" stroke-miterlimit="10" d="M95.8,423.4
				c0,0-5.7,3.7-4.7,5.7c1,2,1.7,3.4,2.7,4c1,0.7,4,1.7,5,1c1-0.7,3.4-2.4,3.7-5c0.3-2.7,1.3-3,0.3-4.4
				C101.9,423.4,95.8,423.4,95.8,423.4z"/>
			<path fill="none" stroke="#263238" stroke-linecap="round" stroke-linejoin="round" stroke-miterlimit="10" d="M91.1,429.1l4,2.7
				l3.4-0.3l1.3-3.7c0,0,0-2-2-2c-2,0-3,1-3,1l0.7,2"/>
		</g>
	</g>
</g>
<g id="Character">
	<g id="XMLID_66_">
		<path id="XMLID_65_" fill="#808080" stroke="#263238" stroke-linecap="round" stroke-linejoin="round" stroke-miterlimit="10" d="
			M201.5,236.3c0,1-1,1.9-2.2,1.9c-1.2,0-2.2-0.8-2.2-1.9c0-1,1-1.9,2.2-1.9C200.6,234.4,201.5,235.3,201.5,236.3z"/>
		<path id="XMLID_67_" fill="#808080" stroke="#263238" stroke-linecap="round" stroke-linejoin="round" stroke-miterlimit="10" d="
			M203.7,242.1c0,1-1,1.9-2.2,1.9s-2.2-0.8-2.2-1.9c0-1,1-1.9,2.2-1.9S203.7,241,203.7,242.1z"/>
		<path id="XMLID_68_" fill="#808080" stroke="#263238" stroke-linecap="round" stroke-linejoin="round" stroke-miterlimit="10" d="
			M205.8,247.8c0,1-1,1.9-2.2,1.9s-2.2-0.8-2.2-1.9c0-1,1-1.9,2.2-1.9S205.8,246.8,205.8,247.8z"/>
		<path id="XMLID_69_" fill="#808080" stroke="#263238" stroke-linecap="round" stroke-linejoin="round" stroke-miterlimit="10" d="
			M207.9,253.6c0,1-1,1.9-2.2,1.9c-1.2,0-2.2-0.8-2.2-1.9c0-1,1-1.9,2.2-1.9C206.9,251.7,207.9,252.6,207.9,253.6z"/>
	</g>
	<g>
		
			<polygon id="XMLID_112_" fill="#263238" stroke="#263238" stroke-linecap="round" stroke-linejoin="round" stroke-miterlimit="10" points="
			178,281.7 162.8,281.7 160.5,256.6 180.2,256.6 		"/>
		<polygon fill="#C6FF00" stroke="#263238" stroke-linecap="round" stroke-linejoin="round" stroke-miterlimit="10" points="
			179.5,264.8 162.1,273.7 162.8,281.7 170.9,281.7 178.8,272.6 		"/>
		
			<rect id="XMLID_114_" x="158.8" y="253.5" fill="#C6FF00" stroke="#263238" stroke-linecap="round" stroke-linejoin="round" stroke-miterlimit="10" width="23.2" height="5.5"/>
	</g>
	<g>
		<g id="XMLID_71_">
			
				<path id="XMLID_72_" fill="#263238" stroke="#263238" stroke-linecap="round" stroke-linejoin="round" stroke-miterlimit="10" d="
				M222.8,281.9h-27.3c-1.9,0-3.5-1.5-3.5-3.5c0-1.9,1.5-3.5,3.5-3.5h27.3c1.9,0,3.5,1.5,3.5,3.5
				C226.2,280.4,224.7,281.9,222.8,281.9z"/>
		</g>
		
			<polygon id="XMLID_63_" fill="#263238" stroke="#263238" stroke-linecap="round" stroke-linejoin="round" stroke-miterlimit="10" points="
			295.3,282 211.4,282 191.4,227.6 275.3,227.6 		"/>
		
			<polygon id="XMLID_64_" fill="#808080" stroke="#263238" stroke-linecap="round" stroke-linejoin="round" stroke-miterlimit="10" points="
			289.9,276.4 218.3,276.4 201.2,229.9 272.9,229.9 		"/>
		<g>
			
				<path id="XMLID_75_" fill="#263238" stroke="#263238" stroke-linecap="round" stroke-linejoin="round" stroke-miterlimit="10" d="
				M304,301.5c0,0-3.6,5.3-6.6,8c-3,2.7-12.1,11.1-19.6,23.9c-7.5,12.7-12.8,25.8-17.7,37.1c-5,11.3-14,32.1-18.5,38.4
				c-4.6,6.3-7.6,9.7-7.6,9.7s-7.5,0.2-16.3-0.6c-8.8-0.8-12.5-2.4-12.6-0.1c-0.1,2.3,6,8.6,10.3,9.7c4.4,1.1,10,2.8,11.3,4.1
				c1.4,1.3,3.1,2.8,5.2,1.8c2.2-1,8.8-10.2,16.2-16.6c7.4-6.4,16.2-12.7,24.2-27.5c8-14.9,8.4-23.3,14-28.9
				c5.6-5.6,11.5-14.3,18.6-18.9c7.1-4.6,28.5-13.2,35.3-22c6.8-8.9,3.3-19.7-3.3-23.5C330.5,292.1,309.1,290.7,304,301.5z"/>
			<g>
				
					<path id="XMLID_82_" fill="#FFFFFF" stroke="#263238" stroke-linecap="round" stroke-linejoin="round" stroke-miterlimit="10" d="
					M246.9,399.5c-2,4-3.9,7.4-5.3,9.4c-4.6,6.3-7.6,9.7-7.6,9.7s-7.5,0.2-16.3-0.6c-8.8-0.8-12.5-2.4-12.6-0.1
					c-0.1,2.3,6,8.6,10.3,9.7c4.4,1.1,10,2.8,11.3,4.1c1.4,1.3,3.1,2.8,5.2,1.8c2.2-1,8.8-10.2,16.2-16.6c3.4-3,7.2-5.9,11-9.7
					C253.3,405.8,249.2,402.2,246.9,399.5z"/>
				
					<path id="XMLID_81_" fill="#C6FF00" stroke="#263238" stroke-linecap="round" stroke-linejoin="round" stroke-miterlimit="10" d="
					M232.1,433.5c0.7-0.3,1.8-1.4,3.1-2.9c-6-1.2-9.1-4.2-11.8-5c-3.8-1.1-7.1-3.2-7.1-3.2l3-4.4c-0.5,0-1-0.1-1.5-0.1
					c-8.8-0.8-12.5-2.4-12.6-0.1c-0.1,2.3,6,8.6,10.3,9.7c4.4,1.1,10,2.8,11.3,4.1C228.2,433,229.9,434.5,232.1,433.5z"/>
			</g>
		</g>
		<g>
			
				<path id="XMLID_70_" fill="#263238" stroke="#263238" stroke-linecap="round" stroke-linejoin="round" stroke-miterlimit="10" d="
				M242.4,329.6c0,0,1.6,7.4,5.1,14.5c3.5,7.1,11.3,14.5,17,18.8c5.7,4.2,23.9,20.5,32.9,33.4c1.1,1.6-3.2,7.1-8.5,11.9
				c-5.3,4.8-7.6,6.5-4.8,7.4c2.8,0.9,9.6,0.5,16.3-5.1c6.7-5.7,11.1-9.4,13.3-14c1.1-2.3-4.8-5.1-8.3-8.1c-3.5-3-16.6-22.8-20.7-32
				c-4.1-9.2-14.3-22.3-21.9-26.9"/>
			<g>
				
					<path id="XMLID_80_" fill="#FFFFFF" stroke="#263238" stroke-linecap="round" stroke-linejoin="round" stroke-miterlimit="10" d="
					M313.7,396.5c1.1-2.3-4.8-5.1-8.3-8.1c-3-2.5-12.7-16.9-18.1-26.9l-12,10.6c7.5,6.9,16.6,16.2,22.2,24.3
					c1.1,1.6-3.2,7.1-8.5,11.9c-5.3,4.8-7.6,6.5-4.8,7.4c2.8,0.9,9.6,0.5,16.3-5.1C307.2,404.9,311.6,401.1,313.7,396.5z"/>
				
					<path id="XMLID_79_" fill="#C6FF00" stroke="#263238" stroke-linecap="round" stroke-linejoin="round" stroke-miterlimit="10" d="
					M310.1,391.8c-1,1.4-2.2,3.3-3.6,5.8c-3.4,5.7-12.6,12.9-13.8,11.7c-0.7-0.7-1.4-1.9-1.9-2.8c-0.6,0.6-1.2,1.2-1.9,1.7
					c-5.3,4.8-7.6,6.5-4.8,7.4c2.8,0.9,9.6,0.5,16.3-5.1c6.7-5.7,11.1-9.4,13.3-14C314.4,395.1,312.5,393.5,310.1,391.8z"/>
			</g>
		</g>
		
			<rect id="XMLID_77_" x="298" y="408" fill="#FFFFFF" stroke="#263238" stroke-linecap="round" stroke-linejoin="round" stroke-miterlimit="10" width="60.2" height="2.8"/>
		<path id="XMLID_76_" fill="#FFFFFF" stroke="#263238" stroke-linecap="round" stroke-linejoin="round" stroke-miterlimit="10" d="
			M303.5,332.1L293,432.8c0,0.5,0.3,0.9,0.8,0.9l0,0c0.4,0,0.7-0.3,0.8-0.7l15.6-100.9H303.5z"/>
		<path id="XMLID_78_" fill="#FFFFFF" stroke="#263238" stroke-linecap="round" stroke-linejoin="round" stroke-miterlimit="10" d="
			M351.6,332.1l10.5,100.7c0,0.5-0.3,0.9-0.8,0.9l0,0c-0.4,0-0.7-0.3-0.8-0.7l-15.6-100.9H351.6z"/>
		<path id="XMLID_83_" fill="#FFFFFF" stroke="#263238" stroke-linecap="round" stroke-linejoin="round" stroke-miterlimit="10" d="
			M332.5,332.1l0.5,100.7c0,0.4-0.4,0.8-0.8,0.8h0c-0.4,0-0.8-0.3-0.8-0.8l-5.6-100.8H332.5z"/>
		<g>
			<defs>
				<path id="XMLID_74_" d="M355,333.2h-55.7c-2.7,0-5-2.2-5-5v-6.3c0-2.7,2.2-5,5-5H355c2.7,0,5,2.2,5,5v6.3
					C359.9,331,357.7,333.2,355,333.2z"/>
			</defs>
			<use xlink:href="#XMLID_74_"  overflow="visible" fill="#C6FF00"/>
			<clipPath id="XMLID_2_">
				<use xlink:href="#XMLID_74_"  overflow="visible"/>
			</clipPath>
			<path opacity="0.2" clip-path="url(#XMLID_2_)" d="M355,316.9h-54.4l-1.6,3.4c0,0,50.3,0.9,50.3,3.8c0,2.9,0.9,6.7-9,6.7
				c-8,0-34.9,0.4-44.8,0.5c0.4,0.5,0.9,0.9,1.4,1.2l2.9,0.7H355c2.7,0,5-2.2,5-5v-6.3C359.9,319.1,357.7,316.9,355,316.9z"/>
			
				<use xlink:href="#XMLID_74_"  overflow="visible" fill="none" stroke="#263238" stroke-linecap="round" stroke-linejoin="round" stroke-miterlimit="10"/>
		</g>
		<path id="XMLID_73_" fill="#263238" stroke="#263238" stroke-linecap="round" stroke-linejoin="round" stroke-miterlimit="10" d="
			M243.8,336c-1.2-4.1-6.4-12.2,18.2-29.2c13-9,41.2-15.9,41.2-15.9l2.7-3c0,0,7.6,8,22.5,7.4c14.9-0.5,24.1-7.1,25.8-6.5
			c1.8,0.5,1.9,5.1,1.2,13.8c-0.7,8.7-1.6,13.1-8.5,15.2c-6.9,2.1-22.1,2.8-33.1,2.7c-11-0.2-16.3-0.9-16.3-0.9
			s-23.5,14.9-38.2,15.9"/>
		<g>
			<g id="XMLID_51_">
				
					<path id="XMLID_60_" fill="#FFFFFF" stroke="#263238" stroke-linecap="round" stroke-linejoin="round" stroke-miterlimit="10" d="
					M298.4,238.5c-1.1,0.3-33.4,6.7-36.3,6.2c-2.8-0.5-10.3-6.9-12.9-6.7c-2.7,0.2-8,1.1-8.5,2.5c-0.5,1.4,1.2,6.2,1.2,6.2
					s-1.8,2.7-0.9,3.9c0.9,1.2,6-1.8,6-1.8s5.8,4.2,8.5,3.4c2.7-0.9,5.5-1.9,5.5-1.9s41.6,2.5,42.1,2.7c0.5,0.2,5.7,1.2,6.2-6.2
					C309.9,239.2,304.5,236.5,298.4,238.5z"/>
				
					<line id="XMLID_61_" fill="none" stroke="#263238" stroke-linecap="round" stroke-linejoin="round" stroke-miterlimit="10" x1="241.9" y1="246.6" x2="249.2" y2="240.6"/>
				<polygon id="XMLID_58_" fill="#263238" points="244.6,244 248.4,231.8 250,232.1 248.1,241 				"/>
			</g>
			<g>
				<defs>
					<path id="XMLID_59_" d="M273,251.4c0,0-43,11.9-49.9,11c-6.9-0.9-9-3.9-10.6-3.9c-1.6,0-6,2.1-8,1.9c-1.9-0.2-4.2-0.7-4.2,0.5
						c0,1.2,1.8,3.2,2.8,3.2c1.1,0,5.3-0.2,5.3-0.2s-8.3,2.5-8.7,4.1c-0.4,1.6,0.7,3,2.3,3.4c1.6,0.4,2.3,1.1,2.3,1.1
						s0.7,2.7,1.8,3.9c1.1,1.2,4.2,1.8,7.8,1.1c3.5-0.7,9.7-3.9,11.1-4.8c1.4-0.9,44.4-4.8,47.6-5.5c3.2-0.7,7.1-0.7,8.3-2.8
						C282.2,262.2,273,251.4,273,251.4z"/>
				</defs>
				<use xlink:href="#XMLID_59_"  overflow="visible" fill="#FFFFFF"/>
				<clipPath id="XMLID_3_">
					<use xlink:href="#XMLID_59_"  overflow="visible"/>
				</clipPath>
				<path clip-path="url(#XMLID_3_)" fill="#C6FF00" d="M221,271c-7.4,0-5.7-7.4-8.2-6.2c-2.1,1.1-10.5,2.1-12.9,4.9
					c0.4,0.9,1.1,1.5,2.2,1.8c1.6,0.4,2.3,1.1,2.3,1.1s0.7,2.7,1.8,3.9c1.1,1.2,4.2,1.8,7.8,1.1c3.5-0.7,9.7-3.9,11.1-4.8
					c1.4-0.9,44.4-4.8,47.6-5.5c2.6-0.6,5.6-0.7,7.3-1.8c0.6-0.6,1-1,1-1l-4.6-4.5C276.4,259.9,228.4,271,221,271z"/>
				<path opacity="0.5" clip-path="url(#XMLID_3_)" fill="#FFFFFF" d="M221,271c-7.4,0-5.7-7.4-8.2-6.2c-2.1,1.1-10.5,2.1-12.9,4.9
					c0.4,0.9,1.1,1.5,2.2,1.8c1.6,0.4,2.3,1.1,2.3,1.1s0.7,2.7,1.8,3.9c1.1,1.2,4.2,1.8,7.8,1.1c3.5-0.7,9.7-3.9,11.1-4.8
					c1.4-0.9,44.4-4.8,47.6-5.5c2.6-0.6,5.6-0.7,7.3-1.8c0.6-0.6,1-1,1-1l-4.6-4.5C276.4,259.9,228.4,271,221,271z"/>
				
					<use xlink:href="#XMLID_59_"  overflow="visible" fill="none" stroke="#263238" stroke-linecap="round" stroke-linejoin="round" stroke-miterlimit="10"/>
			</g>
			<g>
				<g>
					<g>
						<defs>
							<path id="XMLID_56_" d="M309.3,208.1c0,0-3.9,10.6-8.8,17.7c-5,7.1-7.1,14.5-3.9,22.5c3.2,8,10.1,9.7,10.1,9.7
								s-2.5,23.4-1.8,29.6c0.7,6.2,10.3,13.5,24.6,14c14.3,0.5,26.7-4.6,26.7-9.6c0-5-10.1-31.3-10.1-36.8c0-5.5,0.9-22.7-3.9-38.1
								C337.5,201.7,320.7,196.7,309.3,208.1z"/>
						</defs>
						<use xlink:href="#XMLID_56_"  overflow="visible" fill="#C6FF00"/>
						<clipPath id="XMLID_4_">
							<use xlink:href="#XMLID_56_"  overflow="visible"/>
						</clipPath>
						<path opacity="0.2" clip-path="url(#XMLID_4_)" d="M342.2,217.1c-2.6-8.3-8.6-13.6-15.5-14.9c-3.3,0.7-12.3,2.8-14.5,3.4
							c-1,0.7-2,1.5-2.9,2.5c0,0-3.9,10.6-8.8,17.7c-3.3,4.7-5.4,9.7-5.4,14.8c13.1,3.1,33,8.1,31,8.7c-2.9,0.8-15.2-5.7-11.5-1.6
							c3.7,4.1,23.4,23,17.6,21.3c-5.7-1.6-18.5-15.2-15.2-8.6c3.3,6.6,12.3,17.2,9.4,17.2c-2.9,0-18.1-15.2-12.7-6.2
							c5.3,9,29.6,23.4,21.8,25.4c-4.5,1.2-14.1,0.9-19.6,1.8c3.8,1.6,8.3,2.7,13.6,2.9c14.3,0.5,26.7-4.6,26.7-9.6
							c0-5-10.1-31.3-10.1-36.8C346.1,249.6,347,232.5,342.2,217.1z"/>
						
							<use xlink:href="#XMLID_56_"  overflow="visible" fill="none" stroke="#263238" stroke-linecap="round" stroke-linejoin="round" stroke-miterlimit="10"/>
					</g>
					<path fill="none" stroke="#263238" stroke-linecap="round" stroke-linejoin="round" stroke-miterlimit="10" d="M311.5,251
						c0,0,13,21,32,27"/>
					<path fill="none" stroke="#263238" stroke-linecap="round" stroke-linejoin="round" stroke-miterlimit="10" d="M310,254.5
						c0,0,5,16.5,18,24.5"/>
					<path fill="none" stroke="#263238" stroke-linecap="round" stroke-linejoin="round" stroke-miterlimit="10" d="M312.7,241.3
						c0,0,11.7-5.1,16.6-8.4"/>
					<path fill="none" stroke="#263238" stroke-linecap="round" stroke-linejoin="round" stroke-miterlimit="10" d="M307.9,242.5
						c0,0,4.2,0.9,15.1,0"/>
				</g>
				<g>
					<defs>
						<path id="XMLID_57_" d="M308.3,210.7c0,0-3.4,1.9-7.4,6.2s-23.7,34-23.7,34s5.8,12.2,7.6,12.6c1.8,0.4,32.6-26,35.4-29.2
							c2.8-3.2,4.6-9,3.7-11.5"/>
					</defs>
					<use xlink:href="#XMLID_57_"  overflow="visible" fill="#C6FF00"/>
					<clipPath id="XMLID_5_">
						<use xlink:href="#XMLID_57_"  overflow="visible"/>
					</clipPath>
					<path opacity="0.2" clip-path="url(#XMLID_5_)" d="M320.1,234.2c2.8-3.2,4.6-9,3.7-11.5l-7-5.4l-2.2,2.3c0,0-0.2,9.1-8.2,14
						s-11.5,4.9-12.7,11.1c-1.2,6.2,2.9,7.8-2.1,8.6s-8.2,1.2-8.2,4.5c0,1,0.1,2.8,0.4,4.9c0.4,0.4,0.7,0.7,0.9,0.8
						C286.5,263.8,317.3,237.4,320.1,234.2z"/>
					
						<use xlink:href="#XMLID_57_"  overflow="visible" fill="none" stroke="#263238" stroke-linecap="round" stroke-linejoin="round" stroke-miterlimit="10"/>
				</g>
				
					<path id="XMLID_54_" fill="#FFFFFF" stroke="#263238" stroke-linecap="round" stroke-linejoin="round" stroke-miterlimit="10" d="
					M270.4,252.7c0,0,5.5,13.1,6.7,14.5c1.2,1.4,7.8,0.5,9.9-1.1c2.1-1.6,1.8-4.8,1.8-4.8s-8.1-14.3-9-15s-1.2,0.9-5,2.1
					C271.1,249.6,269.7,250.2,270.4,252.7z"/>
			</g>
			<g>
				<g>
					<defs>
						<path id="XMLID_52_" d="M279.2,174.6c0,0-0.4,5.1,0.5,6.7c0.9,1.6,3.4,3.2,3.4,5.3c0,2.1-1.8,5-1.2,6.5
							c0.5,1.6,3.4,1.8,3.4,1.8s5.3,6.5,6.9,8.8c1.6,2.3,2.3,1.4,4.8,0.7c2.5-0.7,7.8-5.3,10.8-8.8c3-3.5-1.9-14.3-8.5-21.6
							c-6.5-7.3-16.3-7.1-18.4-5C278.7,171.2,279.2,174.6,279.2,174.6z"/>
					</defs>
					<use xlink:href="#XMLID_52_"  overflow="visible" fill="#FFFFFF"/>
					<clipPath id="XMLID_6_">
						<use xlink:href="#XMLID_52_"  overflow="visible"/>
					</clipPath>
					<path clip-path="url(#XMLID_6_)" fill="#C6FF00" d="M293.3,169.6c-0.8,4-1.6,10.9,0.8,15.5c3.7,7,6.6,10.7,4.5,16.4
						c-0.4,1-0.7,1.9-1.1,2.7c2.6-1.1,7.4-5.3,10.2-8.6c3-3.5-1.9-14.3-8.5-21.6C297.4,172.1,295.4,170.6,293.3,169.6z"/>
					<path opacity="0.5" clip-path="url(#XMLID_6_)" fill="#FFFFFF" d="M293.3,169.6c-0.8,4-1.6,10.9,0.8,15.5
						c3.7,7,6.6,10.7,4.5,16.4c-0.4,1-0.7,1.9-1.1,2.7c2.6-1.1,7.4-5.3,10.2-8.6c3-3.5-1.9-14.3-8.5-21.6
						C297.4,172.1,295.4,170.6,293.3,169.6z"/>
					
						<path id="XMLID_55_" clip-path="url(#XMLID_6_)" fill="none" stroke="#263238" stroke-linecap="round" stroke-linejoin="round" stroke-miterlimit="10" d="
						M283.1,182.2c0,0,0-2.7,3.2-0.9"/>
					
						<path id="XMLID_48_" clip-path="url(#XMLID_6_)" fill="none" stroke="#263238" stroke-linecap="round" stroke-linejoin="round" stroke-miterlimit="10" d="
						M285.4,184.7l0.4,2.4c0,0,1.9,0.7,3.4-1.9"/>
					
						<use xlink:href="#XMLID_52_"  overflow="visible" fill="none" stroke="#263238" stroke-linecap="round" stroke-linejoin="round" stroke-miterlimit="10"/>
				</g>
				<g>
					<defs>
						<path id="XMLID_53_" d="M273.8,166.8l0,0.7l-0.3,8.7l9.6,1.2l2.1-3.7v4.1c0,0,4.1-0.5,8.7,1.2c4.6,1.8,10.4,14.3,10.1,19.5
							c-0.4,5.1-4.8,6.2-4.2,14c0.5,7.8,12.4,15.6,21.4,10.6s10.4-11.3,14.2-10.1c3.7,1.2,9.4,8.8,12.9-1.9s1.9-17.7-6.4-26.5
							c-8.3-8.8-14.9-8.1-15.9-15.2c-1.1-7.1-3.4-16.6-11-21.9c-7.6-5.3-18.6-5.7-28-1.6C277.5,149.8,273.8,162.2,273.8,166.8z"/>
					</defs>
					<use xlink:href="#XMLID_53_"  overflow="visible" fill="#263238"/>
					<clipPath id="XMLID_7_">
						<use xlink:href="#XMLID_53_"  overflow="visible"/>
					</clipPath>
					<g clip-path="url(#XMLID_7_)">
						<path fill="#575757" d="M279.1,170.9c-0.1,0-0.1,0-0.2,0c-1-0.2-1.2-2-1.3-6.3c0-1.1-0.1-2.3-0.1-3.2c0-0.1,0-0.2,0-0.2
							c-0.8,1-2.6,5.3-4,9l-0.9-0.3c3.6-10.1,4.8-9.9,5.2-9.9c0.7,0.1,0.8,1,0.8,1.3c0.1,0.9,0.1,2.1,0.1,3.2c0,1.8,0.1,4.7,0.5,5.3
							c0.1-0.1,0.5-0.5,1.1-1.7c1-2.1,2-3,2.9-3c1.2,0.1,1.8,1.6,2.2,2.8c0.1,0.3,0.3,0.7,0.4,0.8c0.4,0.1,2-1.5,2.8-2.3
							c0.2-0.3,0.5-0.5,0.7-0.7c0.4-0.4,0.9-0.8,1.4-0.7c0.6,0.1,0.8,0.6,1.1,1.2c0.3,0.5,0.6,1.1,1.1,1.5c0.3,0.3,0.5,0.2,0.5,0.2
							c0.7-0.2,1.6-2.1,2.6-4.4c0.2-0.5,0.5-1.1,0.8-1.7c0.3-0.7,0.8-1.6,1.5-1.5c0.9,0.1,1.4,1.5,2,3.7c0.5,1.8,1.1,3.8,2,5
							c0.2,0.3,0.5,0.6,0.8,0.6c0.8-0.1,1.6-2.4,2.2-3.8c0.3-0.8,0.6-1.6,0.9-2c0.3-0.5,0.6-0.6,0.9-0.5c0.7,0,1.2,1,1.9,2.4
							c0.5,1,1.2,2.4,1.8,2.6c0.1,0,0.2,0,0.2,0c0.4-0.2,0.7-1.5,1-2.5c0.3-1.2,0.6-2.4,1.2-3.3c0.4-0.5,0.8-0.8,1.4-0.9
							c1.3-0.2,2.8,0.9,3.7,1.7c-0.1-0.5-0.2-1.2-0.2-1.8c-0.5-3.3-0.6-4.9,0.2-5.4c0.4-0.2,0.9-0.1,1.4,0.4
							c0.7,0.6,1.6,1.6,2.6,2.7c1.8,2.1,4.6,5.2,5.7,4.9c0.3-0.1,0.5-0.6,0.6-0.9l1,0.2c-0.2,1-0.6,1.5-1.3,1.7
							c-1.6,0.4-3.8-1.9-6.7-5.2c-0.9-1-1.8-2-2.5-2.6c-0.1-0.1-0.2-0.1-0.2-0.2c-0.2,0.6,0.1,3.1,0.3,4.3c0.4,2.4,0.4,3,0,3.3
							c-0.2,0.1-0.5,0.1-0.7,0c-0.2-0.1-0.4-0.3-0.6-0.5c-0.8-0.6-2.1-1.6-3-1.5c-0.3,0-0.5,0.2-0.7,0.5c-0.5,0.7-0.8,1.9-1.1,3
							c-0.4,1.5-0.7,2.8-1.5,3.2c-0.2,0.1-0.6,0.2-1,0c-0.9-0.4-1.7-1.8-2.3-3.1c-0.3-0.6-0.8-1.5-1-1.8c0,0,0,0,0,0
							c-0.2,0.4-0.5,1.1-0.8,1.9c-0.7,2-1.6,4.2-2.9,4.5c-0.6,0.1-1.2-0.2-1.8-0.9c-1-1.3-1.6-3.4-2.2-5.3c-0.3-1.2-0.8-2.8-1.1-3
							c0,0-0.2,0.2-0.5,0.9c-0.3,0.6-0.5,1.1-0.7,1.6c-1.3,2.8-2.1,4.6-3.3,4.9c-0.5,0.1-0.9,0-1.4-0.4c-0.7-0.6-1.1-1.3-1.4-1.8
							c-0.1-0.2-0.3-0.6-0.4-0.6c0,0-0.2,0-0.5,0.4c-0.2,0.2-0.5,0.5-0.7,0.7c-1.7,1.7-2.7,2.7-3.6,2.6c-0.3,0-0.6-0.2-0.8-0.5
							c-0.2-0.2-0.3-0.6-0.5-1c-0.3-0.7-0.8-2.1-1.4-2.1c-0.2,0-0.8,0.1-2,2.4C280.3,170.2,279.7,170.9,279.1,170.9z"/>
						<path fill="none" stroke="#575757" stroke-miterlimit="10" d="M299,211.1c0,0,2.5-9.2,5-6.3c2.5,2.9,4.3,3.8,4.5,1.4
							c0.2-2.5,0-6.1,2.5-2.7s8.6,6.8,9,1.6c0.5-5.2,1.1-12.2,4.1-8.6c2.9,3.6,5.4,6.3,5.6,4.3c0.2-2,2.3-3.6,3.2-1.4
							c0.9,2.3,1.6,4.5,2.3-0.7c0.7-5.2-2.5-10.8,0.9-9.5c3.4,1.4,5,5.9,5,3.4c0-2.5-4.1-5.4-0.5-4.5c3.6,0.9,4.1,3.2,4.5,1.8
							c0.5-1.4-2-4.5,1.1-4.5"/>
					</g>
					
						<use xlink:href="#XMLID_53_"  overflow="visible" fill="none" stroke="#263238" stroke-linecap="round" stroke-linejoin="round" stroke-miterlimit="10"/>
				</g>
			</g>
		</g>
		<path fill="none" stroke="#263238" stroke-linecap="round" stroke-linejoin="round" stroke-miterlimit="10" d="M295.3,190.3"/>
	</g>
</g>
<g id="Ground">
	<line fill="none" stroke="#263238" stroke-miterlimit="10" x1="67.2" y1="434.4" x2="433.2" y2="434.4"/>
</g>
</svg>
