<svg id="Layer_1" data-name="Layer 1" xmlns="http://www.w3.org/2000/svg" viewBox="0 0 1719.71 1716.45"><defs><style>.cls-1,.cls-2{stroke:#000;stroke-miterlimit:10;}.cls-1{stroke-width:3px;}.cls-2{stroke-width:4px;}</style></defs><title>Logo-Black</title><path class="cls-1" d="M1757.31,1239.65V1182a3.59,3.59,0,0,0-3.59-3.6h-24a3.6,3.6,0,0,0,0,7.19h20.37v54a15.59,15.59,0,1,0,7.19,0Zm-3.59,23.54a8.39,8.39,0,1,1,8.39-8.38A8.39,8.39,0,0,1,1753.72,1263.19Z" transform="translate(-580.29 -42.13)"/><path class="cls-1" d="M1821.69,1215.26a15.61,15.61,0,0,0-15.16,12h-7.61V1182a3.6,3.6,0,0,0-3.6-3.6h-24a3.6,3.6,0,1,0,0,7.19h20.37v45.21a3.6,3.6,0,0,0,3.59,3.6h11.21a15.58,15.58,0,1,0,15.16-19.18Zm0,24a8.39,8.39,0,1,1,8.38-8.39A8.39,8.39,0,0,1,1821.69,1239.23Z" transform="translate(-580.29 -42.13)"/><path class="cls-1" d="M1800.45,1116.34h0a3.6,3.6,0,0,0,3.56-3.63,48.27,48.27,0,0,0-3.32-17.22,3.6,3.6,0,0,0-6.7,2.61,40.92,40.92,0,0,1,2.83,14.67,3.6,3.6,0,0,0,3.6,3.57Z" transform="translate(-580.29 -42.13)"/><path class="cls-1" d="M1787.31,1086.69a3.59,3.59,0,0,0,2.77,1.31,3.55,3.55,0,0,0,2.29-.83,3.59,3.59,0,0,0,.48-5.06,48.76,48.76,0,0,0-37.68-17.83,3.6,3.6,0,0,0,0,7.19,41.61,41.61,0,0,1,32.14,15.22Z" transform="translate(-580.29 -42.13)"/><text x="-580.29" y="-42.13"></text><path class="cls-1" d="M1152.78,1529.47l-26.85-13.26-12.3,24.91,29.93,14.77-3.69,7.49L1101,1544.2l34.1-69.09,37.31,18.42-3.69,7.48-28.39-14-10.78,21.84,26.86,13.25Z" transform="translate(-580.29 -42.13)"/><path class="cls-1" d="M1184.26,1568.7a35.25,35.25,0,0,0,15.18,10.63c9.6,3.36,17,.24,19.55-7.09,2.38-6.8-.15-12-8.65-19.26-10.4-8.35-15.59-17.07-12-27.32,4-11.34,16.3-16.47,30.44-11.53,7.44,2.6,12.24,6.21,14.83,9.18l-5.27,6.76a30.6,30.6,0,0,0-12.6-8.28c-9.93-3.47-15.79,1.14-17.52,6.11-2.38,6.79.88,11.69,9.56,19.08,10.64,9,14.83,17.17,11.09,27.86-3.92,11.22-15.63,18-32.79,12-7-2.45-14-7.18-16.94-11.13Z" transform="translate(-580.29 -42.13)"/><path class="cls-1" d="M1294.88,1543l-22.9-5,1.79-8.27,55.75,12.08-1.79,8.27-23-5-14.52,67-9.84-2.13Z" transform="translate(-580.29 -42.13)"/><path class="cls-1" d="M1360,1547.37a142.8,142.8,0,0,1,21.21,0c14.25,1.1,24.14,5.19,30.38,12s9.66,16,8.7,28.42-5.64,22.5-13.37,29-19.88,9.59-34.82,8.43a159.12,159.12,0,0,1-17.94-2.3Zm4.67,68.7a62.7,62.7,0,0,0,10,1.35c21.2,1.63,33.63-9.33,35.23-30.08,1.51-18.11-7.86-30.42-28.83-32a56.79,56.79,0,0,0-11.71.13Z" transform="translate(-580.29 -42.13)"/><path class="cls-1" d="M1457.51,1581.24c-.14-4.22,2.62-7.29,6.62-7.42s6.72,2.75,7,7c.13,4-2.4,7.17-6.62,7.31C1460.49,1588.24,1457.64,1585.24,1457.51,1581.24Zm1.35,40.34c-.15-4.23,2.61-7.3,6.61-7.43s6.73,2.75,7,7c.14,4-2.39,7.17-6.62,7.31C1461.83,1628.57,1459,1625.58,1458.86,1621.58Z" transform="translate(-580.29 -42.13)"/><path class="cls-1" d="M1513.09,1624.42l-.81-6.12,6.81-8.64c16.43-20.41,23.66-31.05,22.3-42.18-1-7.48-5.54-13.91-16.54-12.44-6.68.89-11.78,5-14.81,8.31l-4.1-6.6a32.54,32.54,0,0,1,19.85-10.26c15.87-2.11,24,7.88,25.41,18.42,1.8,13.6-6.59,25.9-20.13,42.93l-5.17,6.22,0,.23,33.09-4.4,1.11,8.27Z" transform="translate(-580.29 -42.13)"/><path class="cls-1" d="M1640.89,1560.51c6.44,24.43.93,40.31-15,44.5-14,3.7-27-7-33.5-30.66-6.35-24.1.55-40.1,15.14-43.95C1622.69,1526.41,1634.87,1537.63,1640.89,1560.51Zm-38.73,11.39c4.92,18.68,13.47,27.78,22.31,25.45,10-2.62,11.65-15.48,6.81-33.83-4.66-17.69-12.25-28.11-22.31-25.45C1600.46,1540.31,1597,1552.33,1602.16,1571.9Z" transform="translate(-580.29 -42.13)"/><path class="cls-1" d="M1690,1584.05l-2.31-5.73,4.45-10c10.84-23.86,15.19-36,11.11-46.4-2.83-7-8.83-12.1-19.11-7.95-6.26,2.53-10.17,7.8-12.28,11.74l-5.62-5.38a32.61,32.61,0,0,1,16.68-14.87c14.84-6,25.21,1.66,29.19,11.52,5.13,12.73.06,26.73-8.82,46.59l-3.46,7.31.09.21,30.95-12.49,3.13,7.74Z" transform="translate(-580.29 -42.13)"/><path class="cls-1" d="M1773.29,1547.55l-3-5.39,3.16-10.53c7.77-25,10.57-37.59,5.22-47.43-3.68-6.59-10.28-10.9-20-5.49-5.89,3.29-9.11,9-10.71,13.18l-6.25-4.63a32.58,32.58,0,0,1,14.69-16.84c14-7.8,25.22-1.5,30.4,7.78,6.68,12,3.4,26.51-2.92,47.32l-2.52,7.69.11.2,29.15-16.27,4.07,7.29Z" transform="translate(-580.29 -42.13)"/><path d="M1438.52,1758.58c-229.24,0-444.76-89.28-606.86-251.37S580.29,1129.59,580.29,900.35,669.56,455.59,831.66,293.5,1209.28,42.13,1438.52,42.13s444.75,89.27,606.85,251.37,251.37,377.61,251.37,606.85-89.27,444.76-251.37,606.86S1667.76,1758.58,1438.52,1758.58Zm0-1636.42c-429.1,0-778.2,349.09-778.2,778.19s349.1,778.2,778.2,778.2,778.19-349.1,778.19-778.2S1867.61,122.16,1438.52,122.16Z" transform="translate(-580.29 -42.13)"/><path d="M1389.45,297.29c-2.36.19-4.75.36-7.11.58l-3.87.39c-13.78,1.37-27.4,3.14-38.63,5.34-2.16.37-4.33.72-6.48,1.12-.08,0-.12,0-.2,0-282,51.52-496.36,299-496.36,595.59s214.83,544.12,496.83,595.64c24.89,4.57,44.09,7.58,73.43,9V938.33H895.18c-.8-13-1.22-25-1.22-37.38,0-13.07.46-26.78,1.37-39.62,0-.2,0-1.25,0-1.25h511.69v-564m-71.72,714v428.42a8.62,8.62,0,0,0-1.66-.42c-215-43.56-385.23-212.82-428.78-428Zm-429.07-225c45.61-211.92,214.09-378.81,426.89-421.95.07,0,.55-.14.63-.14.37-.07,1.55-.12,1.55-.19V785.09Z" transform="translate(-580.29 -42.13)"/><path class="cls-1" d="M1714.93,1239.65V1182a3.6,3.6,0,0,0-3.59-3.6h-24a3.6,3.6,0,0,0,0,7.19h20.37v54a15.58,15.58,0,1,0,7.19,0Zm-3.59,23.54a8.39,8.39,0,1,1,8.38-8.38A8.39,8.39,0,0,1,1711.34,1263.19Z" transform="translate(-580.29 -42.13)"/><path class="cls-1" d="M1850.71,1119.16a43.73,43.73,0,0,0-20.89-13.26c-.92-17.71-8.79-34.23-22.35-46.78a78.18,78.18,0,0,0-53.39-20.53c-26.45,0-50.91,12.87-64.67,33.81a36.49,36.49,0,0,0-10.38-1.49c-16.37,0-30.44,10.79-33.83,25.49-21,5.09-36,23-36,43.48,0,24.77,21.59,44.92,48.11,44.92h9.31v43.31h-8.48c-1.81-7.14-8.7-12.47-16.89-12.47-9.57,0-17.36,7.27-17.36,16.21s7.79,16.21,17.36,16.21c8.19,0,15.08-5.33,16.89-12.47h12.49a3.89,3.89,0,0,0,4-3.74v-50.79a3.89,3.89,0,0,0-4-3.74h-13.32c-22.11,0-40.09-16.79-40.09-37.44,0-17.82,13.56-33.26,32.25-36.72a3.85,3.85,0,0,0,3.19-3.18c1.73-12.31,13.06-21.58,26.37-21.58a28,28,0,0,1,10.55,2,4.15,4.15,0,0,0,5.1-1.62c12-20.2,34.71-32.74,59.4-32.74,37.06,0,67.48,28.15,67.81,62.75a3.82,3.82,0,0,0,3.11,3.61c16,3.46,27.24,16.63,27.24,32,0,18.12-15.8,32.87-35.21,32.87h-2.18a3.75,3.75,0,1,0,0,7.48H1817c23.83,0,43.22-18.1,43.22-40.35A38.81,38.81,0,0,0,1850.71,1119.16Zm-209.46,121.41c-5.15,0-9.35-3.91-9.35-8.72s4.2-8.73,9.35-8.73,9.35,3.91,9.35,8.73S1646.41,1240.57,1641.25,1240.57Z" transform="translate(-580.29 -42.13)"/><path class="cls-1" d="M1655,550.22V699.05h148.84V550.22Zm138,138H1665.83V561.05H1793Z" transform="translate(-580.29 -42.13)"/><rect class="cls-1" x="1191.04" y="452.52" width="10.83" height="38.18"/><rect class="cls-1" x="1159.48" y="452.52" width="10.83" height="38.18"/><rect class="cls-1" x="1127.94" y="452.52" width="10.83" height="38.18"/><rect class="cls-1" x="1096.37" y="452.52" width="10.83" height="38.18"/><rect class="cls-1" x="1191.04" y="674.32" width="10.83" height="38.18"/><rect class="cls-1" x="1159.48" y="674.32" width="10.83" height="38.18"/><rect class="cls-1" x="1127.94" y="674.32" width="10.83" height="38.18"/><rect class="cls-1" x="1096.37" y="674.32" width="10.83" height="38.18"/><rect class="cls-1" x="1019.13" y="529.75" width="38.18" height="10.83"/><rect class="cls-1" x="1019.13" y="561.33" width="38.18" height="10.83"/><rect class="cls-1" x="1019.13" y="592.87" width="38.18" height="10.83"/><rect class="cls-1" x="1019.13" y="624.43" width="38.18" height="10.83"/><rect class="cls-1" x="1240.94" y="529.75" width="38.18" height="10.83"/><rect class="cls-1" x="1240.94" y="561.33" width="38.18" height="10.83"/><rect class="cls-1" x="1240.94" y="592.87" width="38.18" height="10.83"/><rect class="cls-1" x="1240.94" y="624.43" width="38.18" height="10.83"/><path d="M1495.09,296.36V860.08h493.65c1,13,1.46,26.69,1.46,40.18,0,12.34-.18,24.65-1,36.81,0,.41-.07,1.26-.1,1.26h-494v565.42a682.73,682.73,0,0,0,75.28-11.32c273.09-58.53,477.8-301.78,477.8-592.09C2048.17,581,1811.34,318.62,1495.09,296.36Zm75.17,1137.36c-.29.07-.18.31-.18.38v-424h409.39C1936.82,1218.71,1776.36,1384.59,1570.26,1433.72Zm-10-648.63V364.87C1769,410.93,1933.05,576.43,1978,785.09Z" transform="translate(-580.29 -42.13)"/><path d="M1147.91,1287h0a40.67,40.67,0,0,1-40.35-36.22c-17.36-3.32-30.55-19.46-30.55-38.82a40.23,40.23,0,0,1,.46-6.41c-14.7-7-25.06-23.53-25.06-42.8s10.34-35.79,25-42.77a42,42,0,0,1-.48-6.55c0-19.28,13.25-35.44,30.64-38.73a40.6,40.6,0,0,1,80.94,4.51v167.08a40.59,40.59,0,0,1-40.62,40.71Zm-30.38-65,19.67,18.94a12,12,0,1,0,21.47,10.92,12.11,12.11,0,0,0,1.31-5.51V1079.53a12.27,12.27,0,0,0-9.52-12.13,12.06,12.06,0,0,0-13.29,17.2l-19.71,18.87a6.79,6.79,0,0,0-3.3-.85c-4.71,0-8.65,5-8.65,10.89a12.2,12.2,0,0,0,3,8.27l-13.93,23.37a7.36,7.36,0,0,0-1.69-.19c-6.35,0-12,8.3-12,17.76,0,10.29,6.59,19.23,13.74,17.57l13.92,23.37a12.18,12.18,0,0,0-3.06,8.16c0,6,4,11,8.61,11A7,7,0,0,0,1117.53,1222Z" transform="translate(-580.29 -42.13)"/><path d="M1108.62,1203.66l-13.92-23.37,39.82-30.16a20.48,20.48,0,0,1,12.35-4.15h27.38v25.3h-19.77a9.48,9.48,0,0,0-5.73,1.92Z" transform="translate(-580.29 -42.13)"/><path d="M1148.48,1129.54h-28.55V1119a28.24,28.24,0,0,0-4.37-15.08l-3.21-5.06,24.13-15.26,8.45,13.34a22.91,22.91,0,0,1,3.55,12.25Z" transform="translate(-580.29 -42.13)"/><rect x="591.67" y="1106.32" width="54.93" height="28.55"/><polygon points="623.81 1187.78 614.15 1170.34 595.11 1170.34 595.11 1141.79 630.98 1141.79 648.79 1173.95 623.81 1187.78"/><polygon points="630.98 1100.54 595.11 1100.54 595.11 1071.99 614.15 1071.99 623.81 1054.55 648.79 1068.38 630.98 1100.54"/><path d="M1226.27,1115.2a32.59,32.59,0,1,1,32.59-32.58A32.62,32.62,0,0,1,1226.27,1115.2Zm0-36.62a4,4,0,1,0,4,4A4,4,0,0,0,1226.27,1078.58Z" transform="translate(-580.29 -42.13)"/><path d="M1256.05,1195.31a32.59,32.59,0,1,1,32.58-32.59A32.63,32.63,0,0,1,1256.05,1195.31Zm0-36.62a4,4,0,1,0,4,4A4,4,0,0,0,1256.05,1158.69Z" transform="translate(-580.29 -42.13)"/><path d="M1226.27,1280.06a32.59,32.59,0,1,1,32.59-32.58A32.62,32.62,0,0,1,1226.27,1280.06Zm0-36.62a4,4,0,1,0,4,4A4,4,0,0,0,1226.27,1243.44Z" transform="translate(-580.29 -42.13)"/><path d="M1168.45,582.56a25.84,25.84,0,1,1,33.84,13.8,25.8,25.8,0,0,1-33.84-13.8Zm-116,62a8.77,8.77,0,0,1,.72-3.6L1077,578.12s2.52-25,4.8-34.56c10-43,58-82.08,110-82.08a114.79,114.79,0,0,1,70.8,205.08v97.32h-122.4V731.36h-18A45.27,45.27,0,0,1,1077,686.12V654h-15.24a9.37,9.37,0,0,1-9.36-9.36Zm91.2-63.6L1129,590.24l6.24,15,16.8-4A50.25,50.25,0,0,0,1163.89,613L1160.05,630l15,6.12,9.12-14.64a52.61,52.61,0,0,0,16.8-.12l9.24,14.64,15-6.24-4-16.8A50.25,50.25,0,0,0,1233,601l16.8,3.84,6.12-15-14.64-9.24a52.61,52.61,0,0,0-.12-16.8l14.64-9.24-6.36-15-16.8,4a50.25,50.25,0,0,0-11.88-11.76l3.84-16.8-15.12-6.12-9,14.88a52.61,52.61,0,0,0-16.8.12l-9.24-14.64-15,6.24,4,16.8a50.25,50.25,0,0,0-11.76,11.88l-16.92-3.84-6.12,15,14.64,9.12A40.5,40.5,0,0,0,1143.61,581Z" transform="translate(-580.29 -42.13)"/><path class="cls-2" d="M743.18,1102.76l73.86-22,2.84,9.53-73.86,22Z" transform="translate(-580.29 -42.13)"/><path class="cls-2" d="M810.94,1060.69l-75.46,15.62-2.2-10.64,33.17-32.08A217.44,217.44,0,0,1,788.17,1015l-.16-.2c-9.89,3-19,5.1-30.78,7.54l-31.57,6.53-1.9-9.18,75.46-15.61,2,9.85-33.33,31.88a243.16,243.16,0,0,1-22.27,19.32l.18.31c9.4-2.53,18.43-4.63,31-7.22l32.25-6.68Z" transform="translate(-580.29 -42.13)"/><path class="cls-2" d="M784.74,986.56A35.24,35.24,0,0,0,788,968.31c-1-10.12-6.93-15.51-14.66-14.75-7.17.71-10.86,5.21-13.82,16-3.2,13-8.92,21.33-19.73,22.4-11.95,1.18-21.8-7.84-23.27-22.75-.78-7.84.48-13.71,2.08-17.32l8.35,1.93a30.75,30.75,0,0,0-2.21,14.93c1,10.46,7.69,13.83,12.92,13.31,7.17-.71,10.24-5.72,13.29-16.71,3.72-13.46,9.32-20.68,20.59-21.79,11.83-1.17,22.93,6.58,24.72,24.67.73,7.39-.63,15.68-3,20Z" transform="translate(-580.29 -42.13)"/><path class="cls-2" d="M723.08,910.64l.38,23.43-8.46.14-.92-57,8.46-.13.38,23.54,68.58-1.1.17,10Z" transform="translate(-580.29 -42.13)"/><path class="cls-2" d="M716.25,848.8l76.91,4.8-.62,9.93-76.91-4.81Z" transform="translate(-580.29 -42.13)"/><path class="cls-2" d="M728.69,808.53l-3.11,23.23-8.38-1.13,7.56-56.54,8.39,1.12L730,798.56l68,9.1-1.33,10Z" transform="translate(-580.29 -42.13)"/><path class="cls-2" d="M730.72,745.24,775.05,756c16.77,4.08,25.69-1.64,28.12-11.64,2.7-11.11-2.91-20-19.46-24l-44.33-10.76,2.37-9.78,43.66,10.6c23,5.59,29.5,20,25.57,36.21-3.73,15.33-15.31,24.76-38.53,19.12L728.34,755Z" transform="translate(-580.29 -42.13)"/><path class="cls-2" d="M763.2,662,755.29,684l-8-2.86,19.23-53.71,8,2.86-7.94,22.17,64.58,23.12-3.39,9.48Z" transform="translate(-580.29 -42.13)"/><path class="cls-2" d="M828.16,591.16l-12.67,27.15,25.18,11.75,14.12-30.26,7.56,3.53L844,642.6,774.2,610l17.59-37.72,7.57,3.53L786,604.53,808,614.83l12.67-27.15Z" transform="translate(-580.29 -42.13)"/><path class="cls-2" d="M888,487.24c22,14.75,24.76,36,13.83,52.31-11.32,16.92-32.38,20-51.76,7.05-20.34-13.61-25.18-35.15-13.74-52.25C848,476.87,869,474.52,888,487.24Zm-32.21,50.39c13.68,9.16,30.9,10,39.61-3.07S897,506,882.48,496.24c-12.73-8.52-30.49-10.77-39.71,3S841.68,528.22,855.74,537.63Z" transform="translate(-580.29 -42.13)"/><path class="cls-2" d="M871.64,447.61l26.64-31.83,6.4,5.36-20.25,24.2,19.64,16.43,18.71-22.35,6.31,5.28-18.71,22.36,26.74,22.38-6.38,7.63Z" transform="translate(-580.29 -42.13)"/><path class="cls-2" d="M980.82,423.48a35.2,35.2,0,0,0,16.57-8.29c7.53-6.85,8.31-14.82,3.07-20.57-4.85-5.33-10.66-5.6-21.05-1.56-12.3,5.17-22.44,5.58-29.75-2.45-8.08-8.88-6.73-22.17,4.35-32.25,5.83-5.31,11.29-7.8,15.14-8.68l3.43,7.85a30.64,30.64,0,0,0-13.28,7.15c-7.78,7.08-6.51,14.42-3,18.31,4.85,5.33,10.7,4.8,21.34.68,13-5.05,22.16-4.87,29.78,3.5,8,8.8,8.42,22.33-5,34.57-5.5,5-13,8.86-17.86,9.6Z" transform="translate(-580.29 -42.13)"/><path class="cls-2" d="M1066.64,326.69c-6.72-8.4-14.8-18.5-20.3-26.38l-.28.2c3.12,8.87,6.11,18.55,9.14,29.45l10.71,38.32-6.13,4.39-31.51-22.58c-9.29-6.7-17.6-13-24.69-19.15l-.18.13c5.4,7.94,12.46,18.77,18.63,28.56l17.56,28.06-7.71,5.52-40.5-65.77,10.31-7.39,32.4,22.65c8.12,5.85,15.19,11.19,21.43,16.57l.28-.2c-3-7.45-5.65-15.93-8.52-25.83L1036.73,295l10.32-7.39,48.77,59.84-7.9,5.66Z" transform="translate(-580.29 -42.13)"/><path class="cls-2" d="M1109.48,312.24l4.49,25.12-9,4.9L1091.28,262l10.56-5.72,59.79,55.27-9.35,5.06-18.77-17.4ZM1128,293.38l-17.19-15.92c-3.9-3.61-7.08-7.09-10.21-10.46l-.2.1c1.17,4.57,2.29,9.29,3.22,14.12l4,23.2Z" transform="translate(-580.29 -42.13)"/><path class="cls-2" d="M1145.73,235.69a103.06,103.06,0,0,1,17-8.74c9.84-4,16.92-4.86,23-2.67,4.89,1.7,8.9,5.74,11.16,11.24,3.87,9.41.52,18.08-6,23.7l.13.32c6.28-.35,11.65,3.37,16.38,10.08,6.42,9,10.93,15.16,13.54,17.3l-9.51,3.91c-2-1.53-6.1-7-11.76-15.06-6.16-9-11.49-11.11-20-8l-8.67,3.57,12.69,30.87-9.2,3.79Zm22.55,28.68,9.41-3.87c9.83-4,13.86-12,10.51-20.14-3.78-9.2-12.1-10.48-21.87-6.59a41,41,0,0,0-8.74,4.58Z" transform="translate(-580.29 -42.13)"/><path class="cls-2" d="M1230.05,212.23,1207.61,219l-2.44-8.1,54.64-16.42,2.43,8.1-22.55,6.78L1259.44,275l-9.64,2.9Z" transform="translate(-580.29 -42.13)"/><path class="cls-2" d="M1321.47,190.49l-23.13,3.75-1.36-8.35,56.32-9.12,1.35,8.35-23.25,3.77,11,67.71-9.93,1.61Z" transform="translate(-580.29 -42.13)"/><path class="cls-2" d="M1414.83,213.1,1385,215.16l1.9,27.72,33.31-2.3.57,8.33-43.22,3-5.3-76.88,41.52-2.86.57,8.33-31.59,2.18,1.67,24.29,29.88-2.06Z" transform="translate(-580.29 -42.13)"/><path class="cls-2" d="M1490.69,247.58c-3.71,1.72-11.08,3.34-20.45,3.08-21.71-.62-37.66-14.8-36.94-40,.68-24.11,17.49-40,41.37-39.31,9.6.27,15.6,2.5,18.19,3.95l-2.63,8a36.28,36.28,0,0,0-15.45-3.64c-18.06-.51-30.39,10.69-31,30.92-.54,18.85,10,31.27,28.72,31.81,6,.17,12.26-.91,16.31-2.74Z" transform="translate(-580.29 -42.13)"/><path class="cls-2" d="M1526.25,176.49l-4.5,31.92,36.91,5.2,4.49-31.93,10,1.41-10.74,76.3-10-1.41,5-35.77-36.9-5.2-5,35.78-9.85-1.39,10.75-76.3Z" transform="translate(-580.29 -42.13)"/><path class="cls-2" d="M1581.56,263.24l19.74-74.48,10.5,2.79,13.88,44a219.19,219.19,0,0,1,7,27.75l.25-.06c1.75-10.18,3.93-19.29,7-30.9l8.25-31.16,9.06,2.4-19.73,74.48-9.73-2.58-13.63-44.05a244.13,244.13,0,0,1-7.33-28.56l-.37,0c-1.93,9.53-4.08,18.54-7.36,30.92l-8.43,31.83Z" transform="translate(-580.29 -42.13)"/><path class="cls-2" d="M1731.84,272.14c-9.88,24.62-30.07,31.67-48.32,24.34-18.88-7.58-26.27-27.54-17.59-49.18,9.11-22.71,29.19-31.9,48.28-24.23C1733.73,230.9,1740.36,250.93,1731.84,272.14Zm-55.95-21.09c-6.13,15.27-3.35,32.28,11.18,38.11s28.33-4.28,34.84-20.51c5.71-14.21,4.24-32-11.14-38.22S1682.19,235.34,1675.89,251.05Z" transform="translate(-580.29 -42.13)"/><path class="cls-2" d="M1767.22,248l8.78,4.66-32.23,60.69,29.08,15.44-3.92,7.37-37.86-20.11Z" transform="translate(-580.29 -42.13)"/><path class="cls-2" d="M1854,344.73c-14.72,22.06-35.93,24.81-52.29,13.9-16.93-11.29-20.06-32.34-7.12-51.74,13.57-20.35,35.1-25.23,52.22-13.82C1864.32,304.75,1866.7,325.7,1854,344.73Zm-50.44-32.13c-9.13,13.69-9.9,30.91,3.13,39.6s28.6,1.62,38.31-12.93c8.5-12.74,10.72-30.5-3.07-39.7S1813,298.52,1803.57,312.6Z" transform="translate(-580.29 -42.13)"/><path class="cls-2" d="M1890.83,422.5a71.69,71.69,0,0,1-20.73-12.18c-8.85-7.59-14.21-16.09-15.26-26.47-.87-9.18,2.7-19.67,10.51-28.78,15-17.38,38-19.88,57.57-3.07,6.77,5.8,10.81,11.81,12.28,15.18l-7.1,4.61a40,40,0,0,0-10.78-13.6c-14.24-12.2-31.12-11.3-43.68,3.37-12.72,14.85-11.29,31.28,2.34,42.95,5,4.24,8.93,6.45,11.41,7.07l14.95-17.45-11.9-10.19,5.21-6.08,19.27,16.51Z" transform="translate(-580.29 -42.13)"/><path class="cls-2" d="M1963.52,391.68l-54.81,54.16-7-7.07,54.81-54.17Z" transform="translate(-580.29 -42.13)"/><path class="cls-2" d="M1977.08,468.07l-19.52-22.73-21.08,18.1,21.75,25.33-6.33,5.43-28.23-32.87,58.47-50.2,27.11,31.57-6.33,5.44-20.64-24L1963.81,440l19.51,22.72Z" transform="translate(-580.29 -42.13)"/><path class="cls-2" d="M1970.86,499a35.24,35.24,0,0,0,6.24,17.45c5.89,8.29,13.72,10,20.05,5.52,5.87-4.18,6.84-9.92,4.07-20.71-3.65-12.84-2.85-22.95,6-29.24,9.79-7,22.82-4,31.5,8.19,4.57,6.42,6.39,12.14,6.8,16.06l-8.21,2.47a30.71,30.71,0,0,0-5.5-14c-6.09-8.58-13.54-8.19-17.82-5.14-5.87,4.17-6,10-3.24,21.09,3.46,13.54,2.17,22.59-7,29.15-9.69,6.89-23.18,5.68-33.71-9.14-4.31-6-7.24-13.93-7.39-18.87Z" transform="translate(-580.29 -42.13)"/><path class="cls-2" d="M2032.51,624.18c.94-2.93,1.94-5.75,3.44-9.85a31.6,31.6,0,0,1-18.08-16.05c-6.81-13.34-1.8-25.66,8.48-30.91,9.37-4.78,18.65-2.45,26.92,3.2l.31-.15c2.66-5.86,6.56-10.54,11.45-13,8.35-4.26,20-2.62,25.79,8.79,4.36,8.55,2,18.08-6.82,22.6-7.23,3.69-15.06,2.43-26-5.71l-.3.15c-3.76,9.24-8,19.6-10.62,26.48,6.4.71,14.11-.53,23.44-3.63l4.16,8.15c-11.73,3.68-21.79,5.09-30.4,3.07-2,5.64-4,11.18-6.35,17.49Zm6.3-16.83c2.4-6.36,6.85-18.26,11.71-30.36-4.22-2.47-11.25-5.43-18.48-1.74-7.84,4-10.88,12.87-6.67,21.12A21.5,21.5,0,0,0,2038.81,607.35ZM2070,565.11c-4.89,2.5-7.51,6.66-9.67,11.49,7.51,4.89,13.46,7.5,19.26,4.54,4.18-2.13,7.67-6.87,4.81-12.47S2075.29,562.41,2070,565.11Z" transform="translate(-580.29 -42.13)"/><path class="cls-2" d="M2064,668.14a35.33,35.33,0,0,0,.93,18.51c3.25,9.64,10.24,13.56,17.61,11.07,6.83-2.3,9.41-7.51,9.88-18.65.21-13.34,3.9-22.79,14.19-26.26,11.38-3.83,23,2.75,27.79,16.94,2.52,7.48,2.61,13.48,1.86,17.35h-8.56a30.77,30.77,0,0,0-1.21-15c-3.36-10-10.6-11.75-15.58-10.07-6.83,2.3-8.69,7.88-9.19,19.27-.61,14-4.45,22.25-15.17,25.86-11.27,3.8-23.83-1.26-29.64-18.48-2.37-7-2.9-15.43-1.62-20.21Z" transform="translate(-580.29 -42.13)"/><path class="cls-2" d="M2115.48,760.67l-6.9-29.15-27,6.41,7.7,32.48-8.12,1.92-10-42.15,75-17.78,9.59,40.49-8.12,1.93-7.3-30.81-23.69,5.61,6.9,29.15Z" transform="translate(-580.29 -42.13)"/><path class="cls-2" d="M2159.31,777.81a104.42,104.42,0,0,1,4.19,18.69c1.45,10.53.46,17.6-3.19,22.94-2.86,4.32-7.78,7.19-13.66,8-10.08,1.38-17.64-4-21.47-11.7l-.34,0c-1.22,6.17-6.17,10.43-13.85,13.34-10.3,4-17.42,6.78-20.14,8.78l-1.41-10.2c2-1.54,8.32-4.14,17.53-7.61,10.22-3.71,13.63-8.34,12.73-17.33l-1.28-9.29L2085.35,798l-1.35-9.85Zm-33.41,14.64,1.39,10.08c1.45,10.53,8.14,16.42,16.86,15.22,9.86-1.36,13.18-9.09,11.85-19.52a40.94,40.94,0,0,0-2.24-9.62Z" transform="translate(-580.29 -42.13)"/><path class="cls-2" d="M2092.54,870.86l76.15-27.77.37,10.74-37.52,13.29c-10.29,3.67-19.56,6.85-28.52,9.21v.23c9,1.87,18.81,4.73,29,7.82l38.49,11.72.37,10.63-77.95-24.9Z" transform="translate(-580.29 -42.13)"/><path class="cls-2" d="M2169.38,934.75l-77-3.12.41-9.94,77,3.12Z" transform="translate(-580.29 -42.13)"/><path class="cls-2" d="M2087.63,1006.67c-1.39-3.84-2.34-11.32-1.24-20.63,2.55-21.57,18.1-36.19,43.19-33.22,24,2.83,38.26,21,35.46,44.72-1.13,9.53-3.89,15.31-5.56,17.76l-7.78-3.34a36.2,36.2,0,0,0,5-15.06c2.12-17.94-7.93-31.22-28-33.6-18.73-2.22-32,7.14-34.24,25.76-.72,6-.19,12.3,1.27,16.5Z" transform="translate(-580.29 -42.13)"/><path class="cls-2" d="M2108.75,1068.36l6.45-29.25-27.13-6-7.19,32.6-8.15-1.8,9.33-42.31,75.25,16.59-9,40.64-8.15-1.8,6.82-30.93-23.78-5.24-6.45,29.25Z" transform="translate(-580.29 -42.13)"/><path class="cls-2" d="M2080.27,1081.93a35.26,35.26,0,0,0-10.22,15.45c-3.1,9.7.21,17,7.62,19.36,6.86,2.2,12-.47,19-9.16,8.07-10.63,16.65-16,27-12.74,11.44,3.65,16.91,15.84,12.35,30.11-2.41,7.51-5.89,12.4-8.78,15.08l-6.9-5.09a30.69,30.69,0,0,0,7.94-12.82c3.2-10-1.57-15.75-6.58-17.35-6.86-2.19-11.66,1.19-18.82,10.07-8.76,10.88-16.77,15.28-27.55,11.84-11.33-3.62-18.45-15.14-12.91-32.45,2.26-7.08,6.8-14.15,10.67-17.24Z" transform="translate(-580.29 -42.13)"/><text x="-580.29" y="-42.13"></text><path d="M1441.78,1758.58c-229.24,0-444.76-89.28-606.86-251.37S583.55,1129.59,583.55,900.35,672.82,455.59,834.92,293.5,1212.54,42.13,1441.78,42.13s444.75,89.27,606.85,251.37S2300,671.11,2300,900.35s-89.27,444.76-251.37,606.86S1671,1758.58,1441.78,1758.58Zm0-1636.42c-429.1,0-778.2,349.09-778.2,778.19s349.1,778.2,778.2,778.2S2220,1329.45,2220,900.35,1870.87,122.16,1441.78,122.16Z" transform="translate(-580.29 -42.13)"/><path d="M1392.71,297.29c-2.36.19-4.75.36-7.11.58l-3.87.39c-13.78,1.37-27.4,3.14-38.63,5.34-2.16.37-4.33.72-6.48,1.12-.08,0-.12,0-.2,0-282,51.52-496.36,299-496.36,595.59s214.83,544.12,496.83,595.64c24.89,4.57,44.09,7.58,73.44,9V938.33H898.44c-.8-13-1.22-25-1.22-37.38,0-13.07.46-26.78,1.37-39.62,0-.2,0-1.25,0-1.25h511.7v-564m-71.73,714v428.42a8.62,8.62,0,0,0-1.66-.42c-215-43.56-385.23-212.82-428.78-428Zm-429.07-225c45.61-211.92,214.09-378.81,426.89-421.95.08,0,.55-.14.63-.14.37-.07,1.55-.12,1.55-.19V785.09Z" transform="translate(-580.29 -42.13)"/><path d="M1498.35,296.36V860.08H1992c1,13,1.46,26.69,1.46,40.18,0,12.34-.18,24.65-1,36.81,0,.41-.07,1.26-.1,1.26h-494v565.42a682.73,682.73,0,0,0,75.28-11.32c273.09-58.53,477.8-301.78,477.8-592.09C2051.43,581,1814.6,318.62,1498.35,296.36Zm75.17,1137.36c-.29.07-.18.31-.18.38v-424h409.39C1940.08,1218.71,1779.63,1384.59,1573.52,1433.72Zm-10-648.63V364.87c208.66,46.06,372.75,211.56,417.68,420.22Z" transform="translate(-580.29 -42.13)"/><path d="M1151.17,1287h0a40.67,40.67,0,0,1-40.35-36.22c-17.35-3.32-30.55-19.46-30.55-38.82a39.1,39.1,0,0,1,.47-6.41c-14.71-7-25.07-23.53-25.07-42.8s10.34-35.79,25-42.77a42,42,0,0,1-.48-6.55c0-19.28,13.25-35.44,30.64-38.73a40.6,40.6,0,0,1,80.94,4.51v167.08a40.59,40.59,0,0,1-40.62,40.71Zm-30.38-65,19.67,18.94a12,12,0,1,0,21.47,10.92,12.11,12.11,0,0,0,1.31-5.51V1079.53a12.27,12.27,0,0,0-9.52-12.13,12.06,12.06,0,0,0-13.29,17.2l-19.71,18.87a6.79,6.79,0,0,0-3.3-.85c-4.71,0-8.65,5-8.65,10.89a12.2,12.2,0,0,0,3,8.27l-13.93,23.37a7.36,7.36,0,0,0-1.69-.19c-6.35,0-12,8.3-12,17.76,0,10.29,6.59,19.23,13.74,17.57l13.92,23.37a12.18,12.18,0,0,0-3.06,8.16c0,6,4,11,8.61,11A6.94,6.94,0,0,0,1120.79,1222Z" transform="translate(-580.29 -42.13)"/><path d="M1111.88,1203.66,1098,1180.29l39.82-30.16a20.48,20.48,0,0,1,12.35-4.15h27.38v25.3h-19.77a9.48,9.48,0,0,0-5.73,1.92Z" transform="translate(-580.29 -42.13)"/><path d="M1151.74,1129.54h-28.55V1119a28.24,28.24,0,0,0-4.37-15.08l-3.21-5.06,24.13-15.26,8.45,13.34a22.91,22.91,0,0,1,3.55,12.25Z" transform="translate(-580.29 -42.13)"/><rect x="594.93" y="1106.32" width="54.93" height="28.55"/><polygon points="627.07 1187.78 617.41 1170.34 598.37 1170.34 598.37 1141.79 634.24 1141.79 652.05 1173.95 627.07 1187.78"/><polygon points="634.24 1100.54 598.37 1100.54 598.37 1071.99 617.41 1071.99 627.07 1054.55 652.05 1068.38 634.24 1100.54"/><path d="M1229.53,1115.2a32.59,32.59,0,1,1,32.59-32.58A32.62,32.62,0,0,1,1229.53,1115.2Zm0-36.62a4,4,0,1,0,4,4A4,4,0,0,0,1229.53,1078.58Z" transform="translate(-580.29 -42.13)"/><path d="M1259.31,1195.31a32.59,32.59,0,1,1,32.58-32.59A32.63,32.63,0,0,1,1259.31,1195.31Zm0-36.62a4,4,0,1,0,4,4A4,4,0,0,0,1259.31,1158.69Z" transform="translate(-580.29 -42.13)"/><path d="M1229.53,1280.06a32.59,32.59,0,1,1,32.59-32.58A32.62,32.62,0,0,1,1229.53,1280.06Zm0-36.62a4,4,0,1,0,4,4A4,4,0,0,0,1229.53,1243.44Z" transform="translate(-580.29 -42.13)"/><path d="M1171.71,582.56a25.84,25.84,0,1,1,33.84,13.8,25.8,25.8,0,0,1-33.84-13.8Zm-116,62a8.77,8.77,0,0,1,.72-3.6l23.88-62.88s2.52-25,4.8-34.56c10-43,58-82.08,110-82.08a114.79,114.79,0,0,1,70.8,205.08v97.32h-122.4V731.36h-18a45.27,45.27,0,0,1-45.24-45.24V654H1065a9.37,9.37,0,0,1-9.36-9.36Zm91.2-63.6-14.64,9.24,6.24,15,16.8-4A50.25,50.25,0,0,0,1167.15,613L1163.31,630l15,6.12,9.12-14.64a52.61,52.61,0,0,0,16.8-.12l9.24,14.64,15-6.24-4-16.8A50.25,50.25,0,0,0,1236.27,601l16.8,3.84,6.12-15-14.64-9.24a52.61,52.61,0,0,0-.12-16.8l14.64-9.24-6.36-15-16.8,4A50.25,50.25,0,0,0,1224,531.8l3.84-16.8-15.12-6.12-9,14.88a52.61,52.61,0,0,0-16.8.12l-9.24-14.64-15,6.24,4,16.8a50.25,50.25,0,0,0-11.76,11.88L1138,540.32l-6.12,15,14.64,9.12A40.5,40.5,0,0,0,1146.87,581Z" transform="translate(-580.29 -42.13)"/></svg>